<svg width="9" height="13" viewBox="0 0 9 13" fill="none" xmlns="http://www.w3.org/2000/svg">
<path fill-rule="evenodd" clip-rule="evenodd" d="M3.47474 0.231099C3.57316 0.181877 3.68169 0.15625 3.79173 0.15625H4.87154C4.98156 0.15625 5.09006 0.181864 5.18846 0.231063L6.26867 0.771159C6.33679 0.805219 6.39898 0.850038 6.45283 0.90389L6.99253 1.44355C7.04633 1.49734 7.09112 1.55945 7.12517 1.62749L7.66528 2.70665C7.68848 2.75301 7.70653 2.80177 7.71909 2.85206L8.25878 5.01233C8.27282 5.06851 8.27991 5.12619 8.27991 5.18409L8.27993 7.88396C8.27993 7.94189 8.27283 7.99961 8.25878 8.05582L7.71904 10.215C7.70651 10.2651 7.68852 10.3137 7.66541 10.36L7.12534 11.4403C7.09133 11.5083 7.0466 11.5704 6.99286 11.6242L6.45312 12.1646C6.39915 12.2186 6.33679 12.2636 6.26846 12.2977L5.18829 12.8374C5.08981 12.8866 4.98122 12.9122 4.87113 12.9121L3.7913 12.9115C3.68158 12.9114 3.57337 12.8859 3.4752 12.8368L2.3954 12.2978C2.32705 12.2637 2.26467 12.2187 2.21067 12.1647L1.67097 11.6246C1.61719 11.5708 1.57242 11.5087 1.53839 11.4407L0.998292 10.3606C0.975164 10.3143 0.957168 10.2657 0.944625 10.2155L0.404525 8.05536C0.390469 7.99914 0.383362 7.94141 0.383362 7.88347V5.18425C0.383362 5.1263 0.390469 5.06857 0.404525 5.01236L0.94462 2.8522C0.957162 2.80203 0.975158 2.75339 0.998286 2.70714L1.53839 1.62706C1.57251 1.55882 1.61744 1.49653 1.67143 1.44261L2.21115 0.903545C2.26492 0.849839 2.32698 0.805133 2.39495 0.771138L3.47474 0.231099ZM3.95906 1.57357L3.13155 1.98744L2.75452 2.36401L2.30075 3.27146L1.80068 5.2715V7.79622L2.30075 9.79625L2.75468 10.704L3.13165 11.0812L3.95899 11.4942L4.70459 11.4947L5.53184 11.0814L5.90894 10.7039L6.36289 9.79578L6.86261 7.79673L6.86259 5.27128L6.36293 3.27125L5.90914 2.36456L5.53199 1.98743L4.70425 1.57357H3.95906Z" fill="black"/>
</svg>
