<svg width="9" height="13" viewBox="0 0 9 13" fill="none" xmlns="http://www.w3.org/2000/svg">
<path fill-rule="evenodd" clip-rule="evenodd" d="M4.33566 0.186706C4.63456 0.277195 4.83899 0.552675 4.83899 0.864967V11.4942H7.37013C7.76151 11.4942 8.07879 11.8115 8.07879 12.2029C8.07879 12.5942 7.76151 12.9115 7.37013 12.9115H4.16194C4.15146 12.912 4.14092 12.9122 4.13033 12.9122C4.11973 12.9122 4.10919 12.912 4.09872 12.9115H0.890884C0.499501 12.9115 0.182223 12.5942 0.182223 12.2029C0.182223 11.8115 0.499501 11.4942 0.890884 11.4942H3.42166V3.11584L2.47164 4.06519C2.41788 4.11892 2.35582 4.16365 2.28785 4.19766L1.20802 4.73802C0.858009 4.91317 0.432289 4.77142 0.257142 4.42141C0.0819957 4.0714 0.223747 3.64568 0.573753 3.47054L1.55097 2.98153L2.49986 2.0333L3.54066 0.471906C3.71387 0.212054 4.03677 0.0962179 4.33566 0.186706Z" fill="black"/>
</svg>
