<svg width="9" height="13" viewBox="0 0 9 13" fill="none" xmlns="http://www.w3.org/2000/svg">
<path fill-rule="evenodd" clip-rule="evenodd" d="M2.99229 0.231096C3.09071 0.181875 3.19924 0.15625 3.30928 0.15625H6.00899C6.11904 0.15625 6.22757 0.181881 6.326 0.231111L7.4058 0.771208C7.4738 0.80522 7.53588 0.849955 7.58967 0.903695L8.12979 1.44335C8.18372 1.49724 8.22861 1.55948 8.26272 1.62767L8.80244 2.70683C8.85166 2.80525 8.87729 2.91379 8.87729 3.02383L8.87727 4.10429C8.87727 4.18044 8.865 4.25609 8.84092 4.32834L8.30122 5.94776C8.26643 6.05213 8.20782 6.14698 8.13003 6.22477L2.86059 11.4947L8.16855 11.4941C8.55993 11.4941 8.87724 11.8113 8.87729 12.2027C8.87733 12.5941 8.56008 12.9114 8.1687 12.9115L1.14973 12.9122C0.8631 12.9122 0.604674 12.7396 0.494964 12.4748C0.385254 12.21 0.445867 11.9051 0.648539 11.7025L7.0095 5.34092L7.45995 3.9893L7.45996 3.19115L7.04658 2.36461L6.66911 1.98746L5.84164 1.57357H3.4766L2.64915 1.9874L2.19029 2.44594C1.91344 2.72259 1.46474 2.72243 1.18809 2.44559C0.911437 2.16874 0.911595 1.72004 1.18844 1.44339L1.72854 0.903675C1.78234 0.84991 1.84445 0.805158 1.91247 0.771135L2.99229 0.231096Z" fill="black"/>
</svg>
