<svg width="9" height="13" viewBox="0 0 9 13" fill="none" xmlns="http://www.w3.org/2000/svg">
<path fill-rule="evenodd" clip-rule="evenodd" d="M0.239502 0.864911C0.239502 0.473529 0.55678 0.15625 0.948163 0.15625H7.9675C8.24556 0.15625 8.49793 0.318866 8.61283 0.572075C8.72773 0.825285 8.68393 1.12229 8.50083 1.33156L5.7499 4.4756L5.80737 4.47559C5.9174 4.47557 6.02591 4.50117 6.12433 4.55036L7.20415 5.09007C7.27238 5.12417 7.33465 5.16906 7.38857 5.22302L7.92866 5.76344C7.98243 5.81724 8.02718 5.87934 8.06121 5.94737L8.60127 7.02712C8.6505 7.12555 8.67613 7.23409 8.67614 7.34413L8.67614 10.0431C8.67614 10.1532 8.65053 10.2617 8.60134 10.36L8.06124 11.4403C8.0272 11.5084 7.98242 11.5706 7.92862 11.6244L7.38855 12.1648C7.33463 12.2187 7.27235 12.2636 7.20412 12.2977L6.12432 12.8374C6.0259 12.8865 5.91739 12.9121 5.80736 12.9121L2.56792 12.9115C2.45811 12.9114 2.3498 12.8859 2.25155 12.8368L1.17171 12.2978C1.10343 12.2637 1.04111 12.2188 0.987148 12.1649L0.447078 11.6248C0.170321 11.3481 0.170308 10.8994 0.44705 10.6226C0.723792 10.3459 1.17249 10.3458 1.44925 10.6226L1.90784 11.0812L2.73519 11.4942L5.64035 11.4948L6.46749 11.0814L6.84491 10.7037L7.25882 9.87587L7.25881 7.51148L6.84498 6.6841L6.46747 6.30637L5.64032 5.89294L4.1881 5.8932C3.91001 5.89325 3.6576 5.73065 3.54267 5.47743C3.42774 5.22421 3.47152 4.92717 3.65464 4.71789L6.40581 1.57357H0.948163C0.55678 1.57357 0.239502 1.25629 0.239502 0.864911Z" fill="black"/>
</svg>
