<svg width="10" height="14" viewBox="0 0 10 14" fill="none" xmlns="http://www.w3.org/2000/svg">
<path fill-rule="evenodd" clip-rule="evenodd" d="M4.21053 0.652773C4.58182 0.776544 4.78248 1.17788 4.65871 1.54917L2.26994 8.71516L5.97748 8.71508V5.6444C5.97748 5.25302 6.29476 4.93574 6.68614 4.93574C7.07753 4.93574 7.39481 5.25302 7.39481 5.6444V8.71505L8.30602 8.71504C8.69741 8.71503 9.01469 9.0323 9.0147 9.42368C9.01471 9.81507 8.69743 10.1324 8.30605 10.1324L7.39481 10.1324V13.2035C7.39481 13.5948 7.07753 13.9121 6.68614 13.9121C6.29476 13.9121 5.97748 13.5948 5.97748 13.2035V10.1324L1.28671 10.1325C1.05892 10.1325 0.845002 10.023 0.711805 9.8382C0.578608 9.6534 0.542369 9.41584 0.614408 9.19973L3.31413 1.10096C3.4379 0.72966 3.83923 0.529001 4.21053 0.652773Z" fill="black"/>
</svg>
