<svg width="9" height="13" viewBox="0 0 9 13" fill="none" xmlns="http://www.w3.org/2000/svg">
<path fill-rule="evenodd" clip-rule="evenodd" d="M0.920158 0.794424C0.956372 0.432143 1.26122 0.15625 1.62531 0.15625H7.02474C7.41612 0.15625 7.7334 0.473529 7.7334 0.864911C7.7334 1.25629 7.41612 1.57357 7.02474 1.57357H2.26666L1.94704 4.77103L2.38813 4.55043C2.48655 4.50121 2.59508 4.47559 2.70512 4.47559H5.40483C5.51481 4.47559 5.62328 4.50118 5.72165 4.55035L6.80149 5.09007C6.86971 5.12417 6.93199 5.16906 6.98591 5.22302L7.526 5.76344C7.57981 5.81728 7.62459 5.87944 7.65863 5.94753L8.19835 7.02729C8.24752 7.12567 8.27313 7.23415 8.27313 7.34414L8.27311 10.0431C8.27311 10.1531 8.24754 10.2615 8.1984 10.3599L7.6587 11.4401C7.62465 11.5083 7.57983 11.5705 7.52597 11.6244L6.98587 12.1648C6.93195 12.2187 6.86968 12.2636 6.80146 12.2977L5.72166 12.8374C5.62323 12.8865 5.51471 12.9121 5.40467 12.9121L2.70494 12.9115C2.59513 12.9114 2.48683 12.8859 2.38858 12.8368L1.30878 12.2978C1.24044 12.2637 1.17806 12.2187 1.12406 12.1647L0.584331 11.6247C0.307659 11.3478 0.307786 10.8991 0.584614 10.6225C0.861442 10.3458 1.31014 10.3459 1.58681 10.6227L2.04502 11.0812L2.87225 11.4942L5.2377 11.4948L6.06483 11.0814L6.44221 10.7038L6.85579 9.87597L6.8558 7.51138L6.44225 6.68403L6.06481 6.30637L5.23759 5.89291H2.87244L2.0452 6.30663L1.58683 6.76529C1.37507 6.97718 1.05295 7.03303 0.782215 6.9048C0.511482 6.77656 0.350628 6.49194 0.380424 6.19386L0.920158 0.794424Z" fill="black"/>
</svg>
