<svg width="9" height="13" viewBox="0 0 9 13" fill="none" xmlns="http://www.w3.org/2000/svg">
<path fill-rule="evenodd" clip-rule="evenodd" d="M3.80647 0.231111C3.9049 0.181881 4.01344 0.15625 4.12349 0.15625H6.28349C6.67488 0.15625 6.99215 0.473529 6.99215 0.864911C6.99215 1.25629 6.67488 1.57357 6.28349 1.57357H4.29084L3.46348 1.9874L3.05462 2.3962L2.08186 3.85494L1.79099 5.01811L2.72686 4.55035C2.82523 4.50118 2.93371 4.47559 3.04369 4.47559H5.20369C5.31373 4.47559 5.42226 4.50121 5.52068 4.55043L6.60048 5.09047C6.66864 5.12456 6.73086 5.16942 6.78473 5.22333L7.32447 5.76337C7.3782 5.81713 7.42293 5.87919 7.45695 5.94716L7.99702 7.02626C8.0463 7.12472 8.07196 7.23331 8.07196 7.34342L8.07198 10.0436C8.07199 10.1536 8.04636 10.2622 7.99715 10.3606L7.45704 11.4407C7.42301 11.5087 7.37824 11.5708 7.32446 11.6246L6.78475 12.1647C6.73075 12.2187 6.66837 12.2637 6.60003 12.2978L5.52022 12.8368C5.42198 12.8859 5.3137 12.9114 5.2039 12.9115L3.04388 12.9121C2.93383 12.9122 2.82529 12.8866 2.72685 12.8374L1.64705 12.2977C1.57875 12.2636 1.51642 12.2186 1.46247 12.1646L0.922748 11.6242C0.869062 11.5705 0.824368 11.5085 0.790377 11.4405L0.250281 10.361C0.201029 10.2625 0.175387 10.154 0.175387 10.0439V7.35839C0.175181 7.34854 0.17518 7.33867 0.175387 7.32879V5.72375C0.175387 5.6658 0.182497 5.60806 0.196557 5.55183L0.736657 3.392C0.756366 3.31318 0.789482 3.23834 0.834557 3.17075L1.91436 1.55149C1.94024 1.51268 1.9699 1.47652 2.00289 1.44353L2.54262 0.903873C2.59645 0.850054 2.6586 0.805258 2.72667 0.771207L3.80647 0.231111ZM1.59271 7.51149V9.87652L2.00659 10.7038L2.38379 11.0814L3.21079 11.4947L5.03653 11.4942L5.86378 11.0812L6.24075 10.704L6.65466 9.87631L6.65464 7.51087L6.24086 6.68411L5.86359 6.30663L5.03636 5.89291H3.21092L2.38381 6.30631L2.00663 6.68399L1.59271 7.51149Z" fill="black"/>
</svg>
