<svg width="9" height="13" viewBox="0 0 9 13" fill="none" xmlns="http://www.w3.org/2000/svg">
<path fill-rule="evenodd" clip-rule="evenodd" d="M3.32409 0.231096C3.4225 0.181876 3.53103 0.15625 3.64107 0.15625H5.80069C5.9107 0.15625 6.01921 0.181865 6.11761 0.231067L7.19779 0.771163C7.2659 0.80522 7.32808 0.850033 7.38193 0.903878L7.92166 1.44354C7.97546 1.49733 8.02025 1.55945 8.05431 1.62749L8.59442 2.70665C8.6437 2.80511 8.66936 2.91371 8.66936 3.02382L8.66937 3.56418C8.66937 3.67424 8.64374 3.78279 8.5945 3.88122L8.0544 4.96097C8.0204 5.02893 7.9757 5.09098 7.922 5.14475L7.38226 5.68511C7.36862 5.69877 7.35445 5.71185 7.33977 5.72432C7.35423 5.7366 7.3682 5.74948 7.38166 5.76291L7.92139 6.30198C7.97538 6.3559 8.02031 6.41819 8.05444 6.48644L8.59454 7.56651C8.64375 7.66492 8.66937 7.77344 8.66937 7.88347L8.66936 10.0436C8.66936 10.1537 8.64374 10.2622 8.59453 10.3606L8.05441 11.4407C8.02038 11.5087 7.97562 11.5708 7.92183 11.6247L7.38211 12.1647C7.32809 12.2187 7.26568 12.2637 7.19731 12.2978L6.11713 12.8369C6.01892 12.8859 5.91066 12.9114 5.8009 12.9115L3.64129 12.9121C3.53124 12.9122 3.4227 12.8866 3.32426 12.8374L2.24445 12.2977C2.17622 12.2636 2.11395 12.2187 2.06003 12.1648L1.51995 11.6244C1.46609 11.5705 1.42127 11.5083 1.38722 11.4401L0.847505 10.3598C0.798374 10.2615 0.772797 10.153 0.772797 10.0431V7.88358C0.772797 7.77357 0.798406 7.66508 0.847597 7.56669L1.3873 6.48715C1.42141 6.41892 1.46631 6.35665 1.52027 6.30274L2.06037 5.76308C2.07388 5.74958 2.08791 5.73665 2.10243 5.72432C2.08785 5.71193 2.07375 5.69894 2.06019 5.68538L1.52009 5.14534C1.46618 5.09143 1.42132 5.02917 1.38724 4.96097L0.847533 3.8809C0.798384 3.78254 0.772797 3.67409 0.772797 3.56413V3.02409C0.772797 2.91413 0.798384 2.80568 0.847536 2.70732L1.38725 1.62724C1.42142 1.55885 1.46644 1.49645 1.52055 1.44244L2.06063 0.903376C2.11437 0.849744 2.17637 0.805094 2.24427 0.771135L3.32409 0.231096ZM3.80851 6.43262L2.98101 6.84677L2.60352 7.22394L2.19012 8.05085V9.87592L2.60372 10.7038L2.98108 11.0814L3.8082 11.4947L5.63358 11.4942L6.46118 11.0812L6.83814 10.704L7.25204 9.87631L7.25204 8.05077L6.8383 7.22338L6.46124 6.84679L5.63331 6.43262H3.80851ZM5.6335 5.0153L6.46099 4.6019L6.83814 4.22431L7.25204 3.39684L7.25204 3.19127L6.83828 2.36457L6.4611 1.98743L5.63339 1.57357H3.8084L2.98076 1.9875L2.6035 2.36404L2.19012 3.19129V3.39693L2.60363 4.22447L2.98099 4.60179L3.80831 5.0153H5.6335Z" fill="black"/>
</svg>
