<svg width="9" height="13" viewBox="0 0 9 13" fill="none" xmlns="http://www.w3.org/2000/svg">
<path fill-rule="evenodd" clip-rule="evenodd" d="M3.123 0.231068C3.2214 0.181866 3.32991 0.15625 3.43992 0.15625H5.59956C5.7096 0.15625 5.81813 0.181876 5.91655 0.231098L6.99635 0.771137C7.06425 0.805094 7.12625 0.849741 7.17998 0.90337L7.72008 1.44243C7.7742 1.49644 7.81921 1.55885 7.85339 1.62725L8.39309 2.70733C8.44224 2.80569 8.46783 2.91413 8.46783 3.02409L8.46784 5.70984C8.46805 5.71982 8.46805 5.72982 8.46784 5.73982L8.46784 7.34343C8.46784 7.40133 8.46074 7.45903 8.44671 7.51521L7.90698 9.67536C7.88728 9.75421 7.85417 9.82908 7.80908 9.8967L6.7289 11.5168C6.70305 11.5556 6.67345 11.5917 6.64051 11.6247L6.10078 12.1647C6.04678 12.2187 5.98441 12.2637 5.91607 12.2978L4.83629 12.8368C4.73799 12.8859 4.62963 12.9115 4.51976 12.9115H2.35975C1.96837 12.9115 1.65109 12.5942 1.65109 12.2028C1.65109 11.8114 1.96837 11.4941 2.35975 11.4941H4.35269L5.17982 11.0812L5.58851 10.6723L6.5617 9.21265L6.85238 8.04925L5.91653 8.51728C5.81812 8.5665 5.7096 8.59212 5.59956 8.59213L3.43996 8.59218C3.32995 8.59218 3.22145 8.56657 3.12306 8.51738L2.04284 7.97735C1.97477 7.94331 1.91262 7.89854 1.85879 7.84474L1.31907 7.30535C1.26514 7.25145 1.22026 7.1892 1.18616 7.121L0.646063 6.04071C0.596869 5.94231 0.571259 5.83382 0.571259 5.72381V3.02382C0.571259 2.91372 0.596916 2.80512 0.646196 2.70666L1.1863 1.6275C1.22035 1.55945 1.26515 1.49733 1.31896 1.44353L1.85869 0.903873C1.91254 0.850031 1.97472 0.80522 2.04283 0.771164L3.123 0.231068ZM7.05051 5.55696L7.05051 3.19129L6.63714 2.36404L6.25987 1.9875L5.43223 1.57357H3.60722L2.77951 1.98743L2.40233 2.36457L1.98858 3.19126V5.55653L2.40239 6.38422L2.7794 6.761L3.60721 7.17485L5.43221 7.17481L6.25958 6.76103L6.63708 6.38356L7.05051 5.55696Z" fill="black"/>
</svg>
