<svg width="8" height="10" viewBox="0 0 8 10" fill="none" xmlns="http://www.w3.org/2000/svg">
<path fill-rule="evenodd" clip-rule="evenodd" d="M2.39509 0.755436C2.49347 0.706263 2.60194 0.680664 2.71193 0.680664H4.87156C4.98157 0.680664 5.09007 0.706275 5.18847 0.755469L6.26864 1.29551C6.40584 1.3641 6.51708 1.47537 6.58565 1.61258L7.12539 2.69266C7.17454 2.79103 7.20013 2.89948 7.20013 3.00944V4.07527C7.20031 4.08442 7.20031 4.09355 7.20013 4.10267V8.39462C7.20031 8.40376 7.20031 8.41288 7.20013 8.422V8.94859C7.20013 9.33998 6.88285 9.65725 6.49147 9.65725C6.29651 9.65725 6.11994 9.57853 5.99181 9.45113L5.72865 9.58275C5.63022 9.63199 5.52167 9.65762 5.41162 9.65761L2.71191 9.65756C2.60188 9.65755 2.49335 9.63193 2.39494 9.58271L1.31514 9.04267C1.17803 8.9741 1.06685 8.86292 0.998292 8.72581L0.458192 7.64573C0.408982 7.54732 0.383362 7.43881 0.383362 7.32878V6.2487C0.383362 6.13867 0.408981 6.03016 0.45819 5.93175L0.998285 4.85167C1.06685 4.71456 1.17802 4.60338 1.31513 4.53481L2.39495 3.99477C2.49337 3.94555 2.6019 3.91992 2.71193 3.91992H5.24458L5.78281 3.65123V3.17665L5.42346 2.45754L4.70428 2.09799H2.87917L1.94896 2.56293C1.59887 2.73792 1.17322 2.59597 0.998234 2.24588C0.82325 1.89579 0.965199 1.47014 1.31529 1.29515L2.39509 0.755436ZM5.78281 5.23535L5.72817 5.26263C5.62987 5.3117 5.52151 5.33724 5.41164 5.33724H2.87926L2.16033 5.6968L1.80068 6.41601V7.16147L2.16033 7.88068L2.87926 8.24024L5.2443 8.24029L5.78281 7.97094V5.23535Z" fill="black"/>
</svg>
