<svg width="12" height="14" viewBox="0 0 12 14" fill="none" xmlns="http://www.w3.org/2000/svg">
<path fill-rule="evenodd" clip-rule="evenodd" d="M4.52605 0.48575C4.62435 0.436678 4.73271 0.411133 4.84258 0.411133H5.38232C5.4923 0.411133 5.60078 0.436732 5.69915 0.485905L6.77895 1.02562C6.91606 1.09415 7.02725 1.20528 7.09584 1.34235L7.63593 2.4215C7.68521 2.51997 7.71087 2.62856 7.71087 2.73866L7.71087 3.27903C7.71087 3.38908 7.68524 3.49763 7.636 3.59606L7.0959 4.67581C7.06191 4.74377 7.01721 4.80582 6.96351 4.85958L6.42381 5.39994C6.39072 5.43307 6.35442 5.46284 6.31546 5.48881L5.16094 6.25838L5.41122 6.63366L7.65499 9.32666L7.98617 8.88523L8.45317 7.48338L8.45316 6.51824C8.45315 6.12686 8.77043 5.80957 9.16181 5.80957C9.55319 5.80957 9.87047 6.12684 9.87048 6.51822L9.87049 7.5983C9.87049 7.67443 9.85822 7.75006 9.83416 7.82229L9.29445 9.4424C9.27035 9.51474 9.23474 9.58272 9.18898 9.64371L8.63211 10.386L9.58158 11.3352L10.409 11.749H10.7817C11.1731 11.749 11.4904 12.0663 11.4904 12.4577C11.4904 12.8491 11.1731 13.1663 10.7817 13.1663H10.2417C10.1316 13.1663 10.0231 13.1407 9.92467 13.0915L8.84484 12.5515C8.77676 12.5174 8.71461 12.4726 8.66077 12.4188L7.77293 11.5312L7.56907 11.8029C7.54896 11.8297 7.52698 11.855 7.50328 11.8787L6.96319 12.4188C6.90936 12.4726 6.84719 12.5174 6.7791 12.5515L5.69928 13.0915C5.60087 13.1407 5.49235 13.1663 5.38232 13.1663L3.76279 13.1664C3.65277 13.1664 3.54426 13.1408 3.44586 13.0916L2.36568 12.5516C2.29761 12.5175 2.23547 12.4727 2.18164 12.419L1.64192 11.8796C1.58798 11.8257 1.54309 11.7634 1.50899 11.6952L0.968896 10.6148C0.91971 10.5164 0.894104 10.4079 0.894104 10.2979V8.6785C0.894104 8.56851 0.919706 8.46003 0.968884 8.36164L1.50898 7.28114C1.54309 7.2129 1.588 7.15062 1.64196 7.0967L2.18167 6.55742C2.21462 6.52449 2.25075 6.49488 2.28952 6.46904L3.19521 5.86534L3.1732 5.83233C3.13823 5.7799 3.11041 5.72304 3.09048 5.66325L2.55038 4.04313C2.52629 3.97087 2.51401 3.89519 2.51401 3.81901V2.73893C2.51401 2.62891 2.53963 2.52039 2.58884 2.42199L3.12893 1.34191C3.19757 1.20464 3.30892 1.09336 3.44624 1.02481L4.52605 0.48575ZM4.38702 5.07092L5.47076 4.34853L5.87964 3.93916L6.29355 3.11168L6.29355 2.9061L5.93407 2.18783L5.21508 1.82846H5.00964L4.29085 2.18729L3.93133 2.90624V3.704L4.38702 5.07092ZM3.9816 7.04448L3.13392 7.60953L2.72525 8.01787L2.31143 8.84575V10.1307L2.72525 10.9585L3.10225 11.3352L3.93003 11.7491L5.21495 11.749L6.04233 11.3352L6.46554 10.9121L6.7809 10.4917L4.29815 7.5119C4.28205 7.49257 4.26699 7.4724 4.25303 7.45147L3.9816 7.04448Z" fill="black"/>
</svg>
