<svg width="12" height="13" viewBox="0 0 12 13" fill="none" xmlns="http://www.w3.org/2000/svg">
<path fill-rule="evenodd" clip-rule="evenodd" d="M6.13746 0.591457C6.2503 0.563256 6.36835 0.563264 6.48119 0.591481L8.64083 1.13152C8.71963 1.15123 8.79446 1.18433 8.86205 1.22939L10.4819 2.30947C10.5597 2.36135 10.6265 2.42811 10.6784 2.5059L11.7582 4.12504C11.8358 4.24147 11.8773 4.37828 11.8773 4.51823L11.8773 7.21842C11.8773 7.32839 11.8517 7.43684 11.8026 7.5352L11.2628 8.61528C11.1943 8.7525 11.083 8.86377 10.9458 8.93236L9.86563 9.4724C9.76725 9.52158 9.65878 9.5472 9.5488 9.5472L9.00908 9.54726C8.8211 9.54727 8.64082 9.47261 8.50791 9.33969L8.46906 9.30085L8.43043 9.33951C8.37643 9.39353 8.31406 9.43847 8.24572 9.47259L7.16593 10.0116C7.06776 10.0607 6.95955 10.0862 6.84983 10.0863L5.76962 10.0869C5.6595 10.087 5.55087 10.0614 5.45237 10.0122L4.37257 9.47249C4.30428 9.43836 4.24195 9.39342 4.188 9.3394L3.64828 8.79905C3.59455 8.74527 3.54983 8.68319 3.51583 8.61519L2.97574 7.53511C2.92653 7.4367 2.90091 7.32819 2.90091 7.21816V6.13808C2.90091 6.02803 2.92654 5.91948 2.97578 5.82106L3.51588 4.74129C3.54996 4.67315 3.59481 4.61096 3.6487 4.55709L4.1884 4.01766C4.24226 3.96384 4.30443 3.91904 4.37254 3.885L5.45238 3.34528C5.55076 3.29611 5.65923 3.27051 5.76921 3.27051H6.84938C6.95924 3.27051 7.0676 3.29605 7.1659 3.34512L7.82829 3.67579C7.94196 3.43619 8.18609 3.27051 8.46891 3.27051C8.8603 3.27051 9.17758 3.58778 9.17758 3.97917L9.17758 5.05435C9.17759 5.057 9.17759 5.05964 9.17758 5.06228L9.17759 8.00497L9.30252 8.12991L9.38142 8.1299L10.1006 7.77033L10.46 7.05122L10.46 4.73286L9.57783 3.41013L8.17792 2.47673L6.30923 2.00944L4.44069 2.47641L3.04082 3.41017L2.10767 4.80964L1.64035 6.67824L2.10769 8.5471L3.04078 9.94735L4.44051 10.8797L6.30934 11.347L8.17794 10.88L9.69569 9.86806C10.0213 9.65095 10.4613 9.73892 10.6784 10.0646C10.8956 10.3902 10.8076 10.8302 10.4819 11.0473L8.86203 12.1274C8.79442 12.1725 8.71956 12.2056 8.64072 12.2253L6.48112 12.765C6.36828 12.7932 6.25023 12.7932 6.13739 12.765L3.97777 12.225C3.89907 12.2053 3.82432 12.1723 3.7568 12.1273L2.1369 11.0482C2.05892 10.9963 1.99201 10.9294 1.94005 10.8514L0.860236 9.23098C0.815228 9.16344 0.782157 9.08867 0.762467 9.00993L0.222372 6.85015C0.194144 6.73727 0.194146 6.61917 0.222376 6.50629L0.762476 4.34669C0.782184 4.26789 0.815292 4.19306 0.860354 4.12548L1.94016 2.50606C1.99202 2.42828 2.05876 2.36153 2.13653 2.30966L3.75643 1.22914C3.82407 1.18403 3.89897 1.15088 3.97785 1.13117L6.13746 0.591457ZM7.76027 8.00508L7.76026 5.35171L7.50948 5.10076L6.68232 4.68783H5.93645L5.10904 5.10139L4.732 5.47823L4.31823 6.30543V7.05085L4.73217 7.87864L5.10932 8.25623L5.93621 8.6695L6.68213 8.66905L7.50948 8.25601L7.76027 8.00508Z" fill="black"/>
</svg>
