<svg width="7" height="14" viewBox="0 0 7 14" fill="none" xmlns="http://www.w3.org/2000/svg">
<path fill-rule="evenodd" clip-rule="evenodd" d="M0.890854 0.901367C1.28224 0.901367 1.59952 1.21865 1.59952 1.61003V4.78258L1.65383 4.75544C1.75221 4.70626 1.86068 4.68066 1.97067 4.68066H4.13031C4.2403 4.68066 4.34877 4.70626 4.44715 4.75544L5.52694 5.29516C5.59517 5.32926 5.65744 5.37415 5.71136 5.4281L6.25144 5.96851C6.30521 6.02231 6.34996 6.08441 6.38399 6.15243L6.92409 7.23219C6.97332 7.33062 6.99895 7.43916 6.99895 7.54921L6.99896 10.7893C6.99896 10.8994 6.97331 11.008 6.92403 11.1064L6.38393 12.1857C6.34987 12.2538 6.30507 12.3159 6.25125 12.3697L5.71114 12.9097C5.65736 12.9635 5.59527 13.0082 5.52726 13.0423L4.44746 13.5827C4.34899 13.632 4.24039 13.6576 4.13028 13.6576L1.97067 13.6576C1.86064 13.6576 1.75212 13.6319 1.65371 13.5827L1.39055 13.4511C1.26242 13.5785 1.08584 13.6573 0.890854 13.6573C0.499471 13.6573 0.182193 13.34 0.182193 12.9486V12.4231C0.181986 12.4133 0.181985 12.4034 0.182193 12.3935V5.9444C0.181985 5.93451 0.181986 5.92464 0.182193 5.91478V1.61003C0.182193 1.21865 0.499471 0.901367 0.890854 0.901367ZM1.59952 6.36709V11.9709L2.13802 12.2402L3.96287 12.2403L4.79025 11.8262L5.16789 11.4486L5.58164 10.6219L5.58163 7.71657L5.16777 6.88918L4.79026 6.51144L3.96307 6.09799H2.13791L1.59952 6.36709Z" fill="black"/>
</svg>
