<svg width="8" height="10" viewBox="0 0 8 10" fill="none" xmlns="http://www.w3.org/2000/svg">
<path fill-rule="evenodd" clip-rule="evenodd" d="M3.4522 0.755513C3.55061 0.70629 3.65914 0.680664 3.76919 0.680664H5.92918C6.03916 0.680664 6.14763 0.706263 6.24601 0.755435L7.32583 1.29515C7.67592 1.47013 7.81787 1.89579 7.64288 2.24588C7.4679 2.59597 7.04225 2.73792 6.69216 2.56293L5.76194 2.09799H3.93652L3.10929 2.51171L2.73212 2.8891L2.31823 3.71679V6.62143L2.73213 7.44912L3.10928 7.82652L3.93652 8.24024L5.76185 8.24029L6.69198 7.77506C7.04202 7.59997 7.46771 7.74181 7.6428 8.09184C7.81788 8.44188 7.67604 8.86758 7.32601 9.04266L6.24619 9.58275C6.14776 9.63199 6.03922 9.65762 5.92916 9.65761L3.76916 9.65756C3.65912 9.65755 3.5506 9.63193 3.45219 9.58271L2.37239 9.04267C2.30422 9.00858 2.242 8.96371 2.18812 8.9098L1.64842 8.36976C1.59463 8.31595 1.54987 8.25382 1.51584 8.18577L0.975739 7.10569C0.926529 7.00728 0.900909 6.89877 0.900909 6.78874V3.54948C0.900909 3.43946 0.926529 3.33094 0.975738 3.23253L1.51583 2.15245C1.54986 2.0844 1.59463 2.02227 1.64842 1.96845L2.18814 1.42841C2.24202 1.37451 2.30424 1.32964 2.3724 1.29555L3.4522 0.755513Z" fill="black"/>
</svg>
