<svg width="9" height="14" viewBox="0 0 9 14" fill="none" xmlns="http://www.w3.org/2000/svg">
<path fill-rule="evenodd" clip-rule="evenodd" d="M1.59956 0.647461C1.99094 0.647461 2.30822 0.964739 2.30822 1.35612V6.1242L7.57772 0.855008C7.85448 0.578267 8.30318 0.57828 8.57992 0.855038C8.85666 1.1318 8.85665 1.58049 8.57989 1.85724L4.15504 6.28183L8.64574 12.2695C8.88056 12.5827 8.8171 13.0268 8.50399 13.2617C8.19089 13.4965 7.7467 13.433 7.51187 13.1199L3.14264 7.29417L2.30822 8.12854V12.6947C2.30822 13.0861 1.99094 13.4034 1.59956 13.4034C1.20818 13.4034 0.8909 13.0861 0.8909 12.6947V1.35612C0.8909 0.964739 1.20818 0.647461 1.59956 0.647461Z" fill="black"/>
</svg>
