<svg width="12" height="14" viewBox="0 0 12 14" fill="none" xmlns="http://www.w3.org/2000/svg">
<path fill-rule="evenodd" clip-rule="evenodd" d="M1.17877 0.666894C1.55951 0.57624 1.94165 0.8114 2.03231 1.19214L4.0815 9.79855L5.51752 4.41296C5.60024 4.10274 5.88118 3.88689 6.20224 3.88688C6.5233 3.88687 6.80426 4.10271 6.88699 4.41293L8.32335 9.79868L10.3726 1.19214C10.4632 0.811399 10.8454 0.57624 11.2261 0.666895C11.6069 0.75755 11.842 1.13969 11.7514 1.52043L9.05166 12.8588C8.97647 13.1746 8.69636 13.3989 8.3718 13.4033C8.04723 13.4077 7.76119 13.1909 7.67754 12.8773L6.20233 7.34587L4.72738 12.8774C4.64375 13.1911 4.35771 13.4078 4.03313 13.4035C3.70856 13.3991 3.42844 13.1748 3.35325 12.859L0.653528 1.52043C0.562873 1.13969 0.798034 0.757549 1.17877 0.666894Z" fill="black"/>
</svg>
