<svg width="9" height="14" viewBox="0 0 9 14" fill="none" xmlns="http://www.w3.org/2000/svg">
<path fill-rule="evenodd" clip-rule="evenodd" d="M4.35981 0.683796C4.43204 0.65973 4.50768 0.647461 4.58381 0.647461H6.20372C6.3137 0.647461 6.42217 0.67306 6.52055 0.722232L7.60036 1.26195C7.95045 1.43693 8.0924 1.86259 7.91742 2.21267C7.74244 2.56276 7.31678 2.70471 6.96669 2.52973L6.03648 2.06478H4.69876L3.34673 2.51525L2.46644 3.39581L2.01263 4.30251L1.51293 6.30253V7.74781L2.01263 9.74728L2.46651 10.6548L3.34682 11.5354L4.69888 11.9864L5.54859 11.9863L6.9006 11.5356L7.11458 11.3215L7.11459 8.5433H5.66362C5.27223 8.5433 4.95496 8.22602 4.95496 7.83464C4.95496 7.44326 5.27223 7.12598 5.66362 7.12598H7.82326C8.0112 7.12598 8.19146 7.20064 8.32436 7.33354C8.45725 7.46644 8.53192 7.64669 8.53192 7.83464L8.5319 11.6149C8.5319 11.8028 8.45729 11.983 8.32449 12.1159L7.78478 12.6559C7.70696 12.7338 7.61208 12.7924 7.50765 12.8272L5.88775 13.3673C5.81549 13.3914 5.73983 13.4036 5.66366 13.4037L4.58385 13.4037C4.50762 13.4037 4.43189 13.3914 4.35957 13.3673L2.73967 12.8269C2.63533 12.7921 2.54052 12.7335 2.46276 12.6557L1.38294 11.5756C1.32913 11.5218 1.28434 11.4597 1.25029 11.3916L0.710172 10.3116C0.687025 10.2653 0.669017 10.2167 0.65647 10.1665L0.116756 8.00684C0.102713 7.95065 0.0956116 7.89295 0.0956116 7.83502V6.21534C0.0956116 6.15743 0.102709 6.09975 0.116745 6.04357L0.656479 3.8833C0.669044 3.83301 0.687089 3.78425 0.71029 3.73789L1.25039 2.65879C1.28442 2.5908 1.32917 2.52872 1.38293 2.47495L2.46273 1.39482C2.54057 1.31696 2.63546 1.25831 2.73991 1.22351L4.35981 0.683796Z" fill="black"/>
</svg>
