<svg width="9" height="14" viewBox="0 0 9 14" fill="none" xmlns="http://www.w3.org/2000/svg">
<path fill-rule="evenodd" clip-rule="evenodd" d="M0.825757 0.647461C1.21714 0.647461 1.53442 0.964739 1.53442 1.35612V10.3675L1.94798 11.195L2.32545 11.5727L3.1527 11.9864L4.97766 11.9863L5.80502 11.5725L6.18244 11.1952L6.59596 10.3676L6.59596 1.35612C6.59596 0.964739 6.91324 0.647461 7.30462 0.647461C7.69601 0.647461 8.01329 0.96474 8.01329 1.35612L8.01328 10.5348C8.01328 10.6448 7.98769 10.7532 7.93854 10.8516L7.39883 11.9317C7.36475 11.9999 7.31989 12.0621 7.26598 12.116L6.72587 12.6561C6.67204 12.7099 6.60988 12.7547 6.54179 12.7888L5.46199 13.3288C5.36358 13.378 5.25505 13.4036 5.14502 13.4037L2.9854 13.4037C2.87535 13.4037 2.76682 13.3781 2.66839 13.3289L1.58858 12.7888C1.52042 12.7547 1.45821 12.7099 1.40434 12.656L0.864248 12.1156C0.810412 12.0618 0.76561 11.9996 0.731566 11.9314L0.191851 10.8515C0.14269 10.7531 0.117096 10.6447 0.117096 10.5347V1.35612C0.117096 0.964739 0.434374 0.647461 0.825757 0.647461Z" fill="black"/>
</svg>
