<svg width="9" height="14" viewBox="0 0 9 14" fill="none" xmlns="http://www.w3.org/2000/svg">
<path fill-rule="evenodd" clip-rule="evenodd" d="M0.319305 1.35612C0.319305 0.964739 0.636584 0.647461 1.02797 0.647461H3.72768C3.80382 0.647461 3.87946 0.65973 3.95169 0.683796L5.57158 1.22351C5.67602 1.25831 5.77091 1.31696 5.84874 1.39481L6.92859 2.47494C6.98235 2.52872 7.02711 2.5908 7.06114 2.6588L7.60123 3.7379C7.62443 3.78426 7.64247 3.83302 7.65503 3.88331L8.19473 6.04358C8.20876 6.09975 8.21586 6.15743 8.21586 6.21533L8.21588 7.83502C8.21588 7.89294 8.20878 7.95065 8.19473 8.00685L7.655 10.1665C7.64245 10.2167 7.62445 10.2653 7.60131 10.3116L7.06124 11.3916C7.02719 11.4597 6.9824 11.5218 6.92858 11.5756L5.84877 12.6557C5.771 12.7335 5.67619 12.7921 5.57185 12.8269L3.95192 13.3673C3.87958 13.3914 3.80383 13.4037 3.72758 13.4037L1.02788 13.4034C0.63653 13.4033 0.319305 13.0861 0.319305 12.6947V1.35612ZM1.73663 2.06478V11.9861L3.61264 11.9864L4.9647 11.5354L5.84499 10.6548L6.29884 9.7473L6.79855 7.74782L6.79854 6.30253L6.29888 4.3025L5.84508 3.39581L4.96476 2.51525L3.61273 2.06478H1.73663Z" fill="black"/>
</svg>
