<svg width="10" height="14" viewBox="0 0 10 14" fill="none" xmlns="http://www.w3.org/2000/svg">
<path fill-rule="evenodd" clip-rule="evenodd" d="M0.908309 0.766556C1.23396 0.549456 1.67395 0.637453 1.89105 0.963103L5.08093 5.74793L8.27082 0.963103C8.48792 0.637453 8.9279 0.549456 9.25355 0.766556C9.5792 0.983656 9.6672 1.42364 9.4501 1.74929L5.93264 7.02549L9.4501 12.3017C9.6672 12.6273 9.5792 13.0673 9.25355 13.2844C8.9279 13.5015 8.48792 13.4135 8.27082 13.0879L5.08093 8.30305L1.89105 13.0879C1.67395 13.4135 1.23396 13.5015 0.908309 13.2844C0.582658 13.0673 0.494661 12.6273 0.711761 12.3017L4.22923 7.02549L0.711761 1.74929C0.494661 1.42364 0.582658 0.983656 0.908309 0.766556Z" fill="black"/>
</svg>
