<svg width="9" height="14" viewBox="0 0 9 14" fill="none" xmlns="http://www.w3.org/2000/svg">
<path fill-rule="evenodd" clip-rule="evenodd" d="M0.893316 0.671266C1.20388 0.58879 1.53107 0.725598 1.6905 1.00459L6.8458 10.0263L6.84579 1.35619C6.84579 0.964804 7.16307 0.647526 7.55446 0.647526C7.94584 0.647525 8.26312 0.964804 8.26312 1.35619L8.26312 12.6948C8.26312 13.0161 8.04692 13.2972 7.73635 13.3797C7.42579 13.4622 7.0986 13.3254 6.93917 13.0464L1.78387 4.02468V12.6948C1.78387 13.0862 1.46659 13.4034 1.07521 13.4034C0.683825 13.4034 0.366547 13.0862 0.366547 12.6948V1.35619C0.366547 1.03486 0.582751 0.753742 0.893316 0.671266Z" fill="black"/>
</svg>
