<svg width="9" height="14" viewBox="0 0 9 14" fill="none" xmlns="http://www.w3.org/2000/svg">
<path fill-rule="evenodd" clip-rule="evenodd" d="M0.340775 1.35612C0.340775 0.964739 0.658053 0.647461 1.04944 0.647461H5.36907C5.47905 0.647461 5.58753 0.67306 5.6859 0.722233L6.7657 1.26195C6.834 1.29609 6.89633 1.34104 6.95029 1.39507L7.49001 1.93548C7.54369 1.98924 7.58838 2.05128 7.62237 2.11923L8.16248 3.19898C8.21172 3.29741 8.23735 3.40596 8.23735 3.51601L8.23735 5.13521C8.23735 5.24524 8.21172 5.35376 8.16251 5.45217L7.62241 6.5322C7.58837 6.60025 7.5436 6.66239 7.48981 6.71621L6.95009 7.25619C6.89626 7.31004 6.83412 7.35486 6.76603 7.38894L5.68623 7.92936C5.58776 7.97864 5.47916 8.00429 5.36905 8.00429L5.11027 8.00429L8.10925 12.2886C8.33369 12.6093 8.25571 13.0511 7.93507 13.2756C7.61444 13.5 7.17256 13.422 6.94812 13.1014L3.38021 8.00427L1.7581 8.00425V12.6947C1.7581 13.0861 1.44082 13.4034 1.04944 13.4034C0.658053 13.4034 0.340775 13.0861 0.340775 12.6947V1.35612ZM1.7581 6.58692L3.73691 6.58695C3.74467 6.58682 3.75244 6.58682 3.76019 6.58695L5.20163 6.58697L6.0289 6.17294L6.40614 5.79551L6.82002 4.96789L6.82003 3.68337L6.4061 2.85587L6.02891 2.47818L5.20183 2.06478H1.7581V6.58692Z" fill="black"/>
</svg>
