<svg width="9" height="14" viewBox="0 0 9 14" fill="none" xmlns="http://www.w3.org/2000/svg">
<path fill-rule="evenodd" clip-rule="evenodd" d="M0.123535 1.35612C0.123535 0.964739 0.440814 0.647461 0.832197 0.647461H5.15181C5.2618 0.647461 5.37027 0.67306 5.46865 0.722232L6.54846 1.26195C6.61668 1.29605 6.67895 1.34094 6.73287 1.39488L7.27297 1.9353C7.32679 1.98915 7.37158 2.05132 7.40562 2.11942L7.94531 3.19917C7.99449 3.29755 8.02009 3.40603 8.02009 3.51602L8.02008 5.13521C8.02007 5.24517 7.99449 5.35362 7.94533 5.45199L7.40563 6.53201C7.37155 6.60021 7.32669 6.66246 7.27277 6.71637L6.7327 7.25635C6.67891 7.31013 6.61682 7.3549 6.5488 7.38894L5.46897 7.92936C5.3705 7.97864 5.26191 8.00429 5.1518 8.00429L1.54086 8.00425V12.6947C1.54086 13.0861 1.22358 13.4034 0.832197 13.4034C0.440814 13.4034 0.123535 13.0861 0.123535 12.6947V1.35612ZM1.54086 6.58692L4.98438 6.58697L5.81179 6.17288L6.18925 5.79548L6.60275 4.968L6.60276 3.68325L6.18923 2.85591L5.81179 2.47824L4.98457 2.06478H1.54086V6.58692Z" fill="black"/>
</svg>
