<svg width="10" height="14" viewBox="0 0 10 14" fill="none" xmlns="http://www.w3.org/2000/svg">
<path fill-rule="evenodd" clip-rule="evenodd" d="M0.110307 1.35612C0.110307 0.964739 0.427585 0.647461 0.818968 0.647461H8.37802C8.63938 0.647461 8.87951 0.791308 9.00283 1.02173C9.12615 1.25216 9.11264 1.53176 8.96767 1.74922L2.14308 11.9861L8.37805 11.9863C8.76943 11.9863 9.0867 12.3036 9.08669 12.695C9.08667 13.0864 8.76938 13.4037 8.378 13.4037L0.818942 13.4034C0.557595 13.4034 0.317467 13.2595 0.194153 13.0291C0.0708393 12.7987 0.0843575 12.5191 0.229326 12.3016L7.05388 2.06478H0.818968C0.427585 2.06478 0.110307 1.74751 0.110307 1.35612Z" fill="black"/>
</svg>
