<svg width="6" height="14" viewBox="0 0 6 14" fill="none" xmlns="http://www.w3.org/2000/svg">
<path fill-rule="evenodd" clip-rule="evenodd" d="M5.20012 0.647461C5.5915 0.647461 5.90878 0.964739 5.90878 1.35612V9.45489C5.90878 9.53103 5.89651 9.60668 5.87244 9.67891L5.33274 11.2987C5.29794 11.4031 5.23931 11.498 5.16147 11.5758L4.08127 12.6558C4.00354 12.7335 3.90878 12.7921 3.80451 12.8269L2.185 13.3673C2.11267 13.3914 2.03692 13.4037 1.96067 13.4037L0.880836 13.4037C0.489453 13.4036 0.172191 13.0863 0.172211 12.695C0.172231 12.3036 0.489526 11.9863 0.880908 11.9863L1.84562 11.9864L3.19736 11.5354L4.041 10.6919L4.49146 9.33994V1.35612C4.49146 0.964739 4.80873 0.647461 5.20012 0.647461Z" fill="black"/>
</svg>
