<svg width="10" height="14" viewBox="0 0 10 14" fill="none" xmlns="http://www.w3.org/2000/svg">
<path fill-rule="evenodd" clip-rule="evenodd" d="M4.79173 0.647461C5.09676 0.647461 5.36756 0.842647 5.46402 1.13202L8.15664 9.20986C8.16167 9.2235 8.16628 9.23734 8.17047 9.25136L9.24356 12.4706C9.36733 12.8419 9.16666 13.2432 8.79537 13.367C8.42407 13.4908 8.02274 13.2901 7.89897 12.9188L6.98051 10.1634H2.60296L1.68449 12.9188C1.56073 13.2901 1.1594 13.4908 0.7881 13.367C0.416802 13.2432 0.216137 12.8419 0.339903 12.4706L1.41276 9.25205C1.41707 9.23756 1.42184 9.22327 1.42704 9.20918L4.11943 1.13202C4.21589 0.842648 4.4867 0.647461 4.79173 0.647461ZM3.0754 8.74609H6.50806L4.79173 3.5971L3.0754 8.74609Z" fill="black"/>
</svg>
