<svg width="8" height="14" viewBox="0 0 8 14" fill="none" xmlns="http://www.w3.org/2000/svg">
<path fill-rule="evenodd" clip-rule="evenodd" d="M0.657898 1.35612C0.657898 0.964739 0.975176 0.647461 1.36656 0.647461H6.76599C7.15738 0.647461 7.47466 0.964739 7.47466 1.35612C7.47466 1.74751 7.15738 2.06478 6.76599 2.06478H2.07522V6.04688H5.14609C5.53747 6.04688 5.85475 6.36415 5.85475 6.75554C5.85475 7.14692 5.53747 7.4642 5.14609 7.4642H2.07522V11.9863H6.76599C7.15738 11.9863 7.47466 12.3036 7.47466 12.695C7.47466 13.0864 7.15738 13.4037 6.76599 13.4037H1.36656C0.975176 13.4037 0.657898 13.0864 0.657898 12.695V1.35612Z" fill="black"/>
</svg>
