<svg width="11" height="15" viewBox="0 0 11 15" fill="none" xmlns="http://www.w3.org/2000/svg">
<path fill-rule="evenodd" clip-rule="evenodd" d="M4.01377 0.722311C4.11219 0.673088 4.22072 0.647461 4.33076 0.647461H6.49038C6.60037 0.647461 6.70884 0.67306 6.80722 0.722233L7.88702 1.26195C7.95521 1.29603 8.01746 1.3409 8.07136 1.39481L9.15118 2.47495C9.24194 2.56573 9.30634 2.67947 9.33749 2.80401L9.87759 4.9633C9.89166 5.01954 9.89877 5.07729 9.89877 5.13526L9.8988 8.91494C9.8988 8.97291 9.89169 9.03067 9.87762 9.08691L9.33749 11.2463C9.30635 11.3708 9.242 11.4845 9.15129 11.5752L8.57238 12.1546L9.06972 12.6516L10.0468 13.1403C10.3969 13.3154 10.5387 13.7411 10.3636 14.0912C10.1885 14.4412 9.76285 14.583 9.41281 14.4079L8.333 13.8679C8.26497 13.8338 8.20287 13.7891 8.14907 13.7353L7.43048 13.0172L6.80738 13.3288C6.70895 13.3781 6.60042 13.4037 6.49037 13.4037H4.33076C4.22071 13.4037 4.11217 13.3781 4.01375 13.3288L2.93395 12.7888C2.86586 12.7547 2.80371 12.7099 2.74988 12.6561L1.66971 11.576C1.57886 11.4851 1.51441 11.3713 1.48326 11.2467L0.94353 9.0865C0.929492 9.03032 0.922394 8.97263 0.922394 8.91472V5.13542C0.922394 5.07751 0.929492 5.01982 0.943528 4.96364L1.48324 2.80348C1.51441 2.67872 1.57895 2.56479 1.66993 2.47391L2.75014 1.3948C2.80392 1.34108 2.866 1.29635 2.93399 1.26235L4.01377 0.722311ZM7.57005 11.1525L6.45143 10.0338C6.39758 9.97991 6.3354 9.93509 6.26729 9.90102L5.18748 9.36098C5.08907 9.31176 4.98054 9.28613 4.8705 9.28613H3.79066C3.39928 9.28613 3.082 9.60341 3.082 9.99479C3.082 10.3862 3.39928 10.7035 3.79066 10.7035H4.70317L5.53047 11.1172L6.37402 11.9609L6.32303 11.9864H4.49811L3.67076 11.5726L2.81072 10.7126L2.33972 8.82752V5.22261L2.81066 3.33772L3.67062 2.47863L4.4981 2.06478H6.32314L7.15039 2.47827L8.01013 3.33825L8.48145 5.22255L8.48148 8.82767L8.01011 10.7121L7.57005 11.1525Z" fill="black"/>
</svg>
