<svg width="9" height="14" viewBox="0 0 9 14" fill="none" xmlns="http://www.w3.org/2000/svg">
<path fill-rule="evenodd" clip-rule="evenodd" d="M4.70506 0.683836C4.77732 0.659744 4.853 0.647461 4.92918 0.647461H6.00902C6.08516 0.647461 6.1608 0.65973 6.23303 0.683796L7.85293 1.22351C7.95748 1.25835 8.05247 1.31709 8.13034 1.39506L8.67006 1.93548C8.94663 2.21241 8.94634 2.66111 8.66941 2.93768C8.39248 3.21425 7.94378 3.21396 7.66721 2.93703L7.24592 2.51519L5.89407 2.06478H5.0442L3.69198 2.51558L2.81182 3.39516L2.35804 4.30265L1.85833 6.30269V7.74745L2.35803 9.74748L2.8119 10.6551L3.69214 11.5356L5.04424 11.9863L5.89402 11.9864L7.24598 11.5357L7.66736 11.114C7.94402 10.8371 8.39272 10.837 8.66956 11.1136C8.94641 11.3903 8.94656 11.839 8.66991 12.1158L8.13019 12.6559C8.05237 12.7338 7.95748 12.7925 7.85304 12.8273L6.23314 13.3673C6.16086 13.3914 6.08517 13.4037 6.00898 13.4037L4.92918 13.4037C4.85301 13.4036 4.77735 13.3914 4.70509 13.3673L3.08516 12.8272C2.98077 12.7924 2.88591 12.7338 2.80812 12.656L1.72831 11.5759C1.67449 11.5221 1.62969 11.4599 1.59564 11.3918L1.05554 10.3117C1.0324 10.2655 1.01439 10.2168 1.00185 10.1666L0.462143 8.00641C0.448107 7.95023 0.44101 7.89254 0.44101 7.83464V6.2155C0.44101 6.15759 0.448107 6.0999 0.462144 6.04372L1.00186 3.88356C1.01441 3.83336 1.03241 3.78468 1.05555 3.7384L1.59563 2.65832C1.62973 2.59013 1.67461 2.52789 1.72854 2.474L2.80835 1.3949C2.88611 1.31719 2.98087 1.25864 3.08516 1.22388L4.70506 0.683836Z" fill="black"/>
</svg>
