<svg width="9" height="14" viewBox="0 0 9 14" fill="none" xmlns="http://www.w3.org/2000/svg">
<path fill-rule="evenodd" clip-rule="evenodd" d="M2.69094 0.722309C2.78936 0.673087 2.89788 0.647461 3.00793 0.647461H5.70765C5.7838 0.647461 5.85946 0.659735 5.9317 0.683812L7.55122 1.22353C7.92253 1.34727 8.12322 1.74859 7.99948 2.11989C7.87573 2.4912 7.47442 2.69189 7.10311 2.56815L5.59267 2.06478H3.17526L2.34792 2.47856L1.97033 2.8561L1.5566 3.68274V4.42808L1.97042 5.25565L2.34791 5.6331L3.25533 6.08692L5.33946 6.60808C5.38947 6.62059 5.43796 6.63851 5.48407 6.66153L6.56389 7.20059C6.63216 7.23468 6.69449 7.27956 6.74845 7.33352L7.28853 7.87356C7.34244 7.92746 7.3873 7.98971 7.42137 8.0579L7.96109 9.13798C8.01024 9.23635 8.03583 9.3448 8.03583 9.45476L8.03583 10.5348C8.03583 10.6448 8.01024 10.7532 7.96109 10.8516L7.42138 11.9317C7.3873 11.9999 7.34244 12.0621 7.28853 12.116L6.74844 12.6561C6.6946 12.7099 6.63244 12.7547 6.56435 12.7888L5.48454 13.3288C5.38612 13.378 5.2776 13.4036 5.16757 13.4037L2.46786 13.4037C2.39167 13.4037 2.31598 13.3914 2.2437 13.3673L0.623792 12.8272C0.252503 12.7034 0.0518659 12.3021 0.175658 11.9308C0.29945 11.5595 0.700793 11.3589 1.07208 11.4827L2.58286 11.9864L5.00022 11.9863L5.82757 11.5726L6.20499 11.1952L6.61851 10.3676L6.61851 9.62196L6.20498 8.79441L5.82776 8.41722L4.9204 7.96426L2.83601 7.44303C2.78584 7.43048 2.73719 7.41248 2.69094 7.38935L1.61114 6.84931C1.54305 6.81526 1.48089 6.77045 1.42705 6.71663L0.886951 6.17659C0.833085 6.12273 0.788255 6.06053 0.754187 5.9924L0.214102 4.91232C0.164895 4.81392 0.139276 4.7054 0.139276 4.59538V3.5153C0.139276 3.40519 0.164935 3.29659 0.214218 3.19813L0.754307 2.11902C0.788361 2.05098 0.833151 1.98887 0.886955 1.93507L1.42705 1.39503C1.48089 1.3412 1.54305 1.2964 1.61114 1.26235L2.69094 0.722309Z" fill="black"/>
</svg>
