<svg width="10" height="14" viewBox="0 0 10 14" fill="none" xmlns="http://www.w3.org/2000/svg">
<path fill-rule="evenodd" clip-rule="evenodd" d="M3.79652 0.722309C3.89494 0.673087 4.00347 0.647461 4.11351 0.647461H6.27313C6.38308 0.647461 6.49152 0.673044 6.58987 0.722185L7.67008 1.2619C7.73831 1.29599 7.80059 1.34087 7.85451 1.39481L8.93432 2.47495C9.02512 2.56577 9.08952 2.67955 9.12066 2.80414L9.66035 4.96343C9.67439 5.01963 9.68149 5.07733 9.68149 5.13526L9.68151 8.91494C9.68151 8.97287 9.67441 9.03059 9.66036 9.08679L9.12063 11.2462C9.0895 11.3707 9.02511 11.4845 8.93435 11.5753L7.85458 12.6556C7.80072 12.7095 7.73853 12.7544 7.67039 12.7885L6.59019 13.3288C6.49175 13.3781 6.3832 13.4037 6.27313 13.4037L4.11349 13.4037C4.00346 13.4036 3.89493 13.378 3.79652 13.3288L2.71672 12.7888C2.64859 12.7547 2.5864 12.7099 2.53254 12.656L1.45274 11.5759C1.36196 11.4851 1.29755 11.3713 1.2664 11.2468L0.726274 9.08662C0.712217 9.0304 0.705109 8.97267 0.705109 8.91472V5.13542C0.705109 5.07747 0.712216 5.01974 0.726272 4.96352L1.26638 2.80337C1.29755 2.67869 1.36204 2.56484 1.45294 2.47399L2.53277 1.39489C2.58658 1.34113 2.64869 1.29637 2.71672 1.26235L3.79652 0.722309ZM4.28084 2.06478L3.4534 2.47861L2.59373 3.3377L2.12243 5.22267V8.82746L2.5938 10.7126L3.45355 11.5726L4.28085 11.9863L6.10579 11.9864L6.93343 11.5724L7.79318 10.7121L8.26419 8.82773L8.26417 5.22248L7.79322 3.3382L6.93358 2.47831L6.10594 2.06478H4.28084Z" fill="black"/>
</svg>
