<svg width="9" height="14" viewBox="0 0 9 14" fill="none" xmlns="http://www.w3.org/2000/svg">
<path fill-rule="evenodd" clip-rule="evenodd" d="M1.68257 0.647461C2.07395 0.647461 2.39123 0.964739 2.39123 1.35612V6.04688H7.45316V1.35612C7.45316 0.964739 7.77043 0.647461 8.16182 0.647461C8.5532 0.647461 8.87048 0.964739 8.87048 1.35612V12.6947C8.87048 13.0861 8.5532 13.4034 8.16182 13.4034C7.77043 13.4034 7.45316 13.0861 7.45316 12.6947V7.4642H2.39123V12.6947C2.39123 13.0861 2.07395 13.4034 1.68257 13.4034C1.29119 13.4034 0.973907 13.0861 0.973907 12.6947V1.35612C0.973907 0.964739 1.29119 0.647461 1.68257 0.647461Z" fill="black"/>
</svg>
