<svg width="9" height="14" viewBox="0 0 9 14" fill="none" xmlns="http://www.w3.org/2000/svg">
<path fill-rule="evenodd" clip-rule="evenodd" d="M0.642151 1.35612C0.642151 0.964739 0.959429 0.647461 1.35081 0.647461H5.13034C5.24033 0.647461 5.3488 0.673061 5.44718 0.722234L6.52697 1.26195C6.59519 1.29605 6.65746 1.34094 6.71137 1.39488L7.25149 1.9353C7.30526 1.9891 7.35002 2.05121 7.38405 2.11924L7.92412 3.199C7.97335 3.29742 7.99898 3.40596 7.99898 3.51601L7.99899 4.59511C7.99899 4.70514 7.97337 4.81365 7.92416 4.91206L7.38406 5.99214C7.35003 6.0602 7.30525 6.12233 7.25146 6.17615L6.84696 6.58087L6.97437 6.62335C7.07863 6.65811 7.17338 6.71665 7.25113 6.79433L7.79122 7.33399C7.84517 7.3879 7.89007 7.45017 7.92418 7.51839L8.4639 8.59793C8.51309 8.69632 8.5387 8.80481 8.5387 8.91482L8.53872 10.5342C8.53872 10.6442 8.51315 10.7526 8.46402 10.8509L7.92428 11.9313C7.89023 11.9995 7.84541 12.0617 7.79155 12.1156L7.25145 12.656C7.19758 12.7099 7.13537 12.7547 7.06721 12.7888L5.98741 13.3289C5.88899 13.3781 5.78046 13.4037 5.67041 13.4037L1.3508 13.4037C0.959424 13.4036 0.642151 13.0864 0.642151 12.695V1.35612ZM2.05947 7.4642V11.9863L5.5031 11.9864L6.33034 11.5727L6.70778 11.195L7.1214 10.3671L7.12138 9.08211L6.70796 8.2552L6.36755 7.91505L5.0153 7.4642H2.05947ZM4.96301 6.04688H2.05947V2.06478H4.9631L5.7903 2.47824L6.16783 2.85598L6.58166 3.68336L6.58166 4.42781L6.16778 5.25549L5.79027 5.63319L4.96301 6.04688Z" fill="black"/>
</svg>
