<svg width="10" height="14" viewBox="0 0 10 14" fill="none" xmlns="http://www.w3.org/2000/svg">
<path fill-rule="evenodd" clip-rule="evenodd" d="M0.963621 0.664353C1.28798 0.592393 1.61878 0.755433 1.75928 1.0565L4.89664 7.77922L8.03397 1.0565C8.17448 0.755434 8.50528 0.592393 8.82963 0.664353C9.15399 0.736312 9.38481 1.02395 9.38481 1.35619L9.38482 12.6948C9.38482 13.0862 9.06754 13.4034 8.67616 13.4034C8.28478 13.4034 7.9675 13.0862 7.9675 12.6948L7.96749 4.55046L5.53881 9.75465C5.42238 10.0042 5.17197 10.1636 4.89664 10.1636C4.62131 10.1636 4.3709 10.0042 4.25446 9.75465L1.82577 4.55045V12.6948C1.82577 13.0862 1.50849 13.4034 1.11711 13.4034C0.725726 13.4034 0.408447 13.0862 0.408447 12.6948V1.35619C0.408447 1.02395 0.639266 0.736313 0.963621 0.664353Z" fill="black"/>
</svg>
