<svg width="6" height="20" viewBox="0 0 6 20" fill="none" xmlns="http://www.w3.org/2000/svg">
<path fill-rule="evenodd" clip-rule="evenodd" d="M0.0404968 1.49968C0.0404968 1.10829 0.357775 0.791016 0.749158 0.791016H1.28886C1.39887 0.791016 1.50736 0.816625 1.60576 0.865817L2.68596 1.40586C2.82317 1.47445 2.93441 1.58572 3.00298 1.72294L3.5427 2.80302C3.59185 2.90138 3.61744 3.00984 3.61744 3.11979V8.35093L3.97708 9.07013L4.84567 9.50453C5.08572 9.62459 5.23734 9.86995 5.23734 10.1383C5.23734 10.4067 5.08572 10.6521 4.84567 10.7722L3.97708 11.2066L3.61744 11.9258L3.61744 17.1579C3.61744 17.2678 3.59185 17.3763 3.5427 17.4747L3.00297 18.5547C2.93433 18.6921 2.82291 18.8035 2.68549 18.872L1.60531 19.4111C1.50704 19.4602 1.39871 19.4857 1.28887 19.4857H0.749158C0.357775 19.4857 0.0404968 19.1684 0.0404968 18.777C0.0404968 18.3856 0.357775 18.0684 0.749158 18.0684H1.12187L1.8409 17.7095L2.20011 16.9907L2.20012 11.7585C2.20012 11.6484 2.22574 11.5399 2.27495 11.4415L2.81504 10.3614C2.858 10.2755 2.91769 10.1998 2.99 10.1384C2.91768 10.0769 2.85799 10.0012 2.81503 9.91525L2.27495 8.83518C2.22574 8.73677 2.20012 8.62826 2.20012 8.51823V3.287L1.84078 2.5679L1.12159 2.20834H0.749158C0.357775 2.20834 0.0404968 1.89106 0.0404968 1.49968Z" fill="black"/>
</svg>
