<svg width="5" height="20" viewBox="0 0 5 20" fill="none" xmlns="http://www.w3.org/2000/svg">
<path fill-rule="evenodd" clip-rule="evenodd" d="M0.25804 0.998606C0.534774 0.721841 0.983474 0.721816 1.26024 0.998549L1.80034 1.53859C1.83332 1.57157 1.86296 1.60772 1.88884 1.64652L2.96868 3.26566C2.98503 3.29019 2.99985 3.31572 3.01303 3.34209L3.55273 4.42217C3.56769 4.45211 3.58051 4.48307 3.59109 4.51481L4.13119 6.13493C4.14048 6.16279 4.14803 6.19121 4.15379 6.22001L4.69389 8.91923C4.70305 8.96501 4.70767 9.01158 4.70767 9.05827L4.70766 11.2184C4.70766 11.2651 4.70305 11.3117 4.69389 11.3575L4.15379 14.0567C4.14803 14.0855 4.14048 14.1139 4.13119 14.1418L3.59111 15.7619C3.58052 15.7936 3.5677 15.8246 3.55273 15.8545L3.013 16.9346C2.99985 16.9609 2.98508 16.9864 2.96876 17.0109L1.88895 18.631C1.86301 18.6699 1.83327 18.7062 1.80019 18.7392L1.26009 19.2789C0.983243 19.5556 0.534543 19.5554 0.257892 19.2786C-0.01876 19.0017 -0.0186015 18.553 0.258246 18.2764L0.748587 17.7864L1.7649 16.2616L2.26243 15.266L2.77267 13.7354L3.29034 11.1482L3.29034 9.12847L2.77267 6.54134L2.26241 5.01074L1.76497 4.01522L0.748605 2.49126L0.258097 2.0008C-0.0186681 1.72407 -0.0186934 1.27537 0.25804 0.998606Z" fill="black"/>
</svg>
