<svg width="3" height="10" viewBox="0 0 3 10" fill="none" xmlns="http://www.w3.org/2000/svg">
<path fill-rule="evenodd" clip-rule="evenodd" d="M1.70395 0.730469C1.89194 0.730442 2.07223 0.805107 2.20516 0.938034L2.74524 1.47813C2.87818 1.61106 2.95284 1.79137 2.9528 1.97937C2.95277 2.16736 2.87803 2.34764 2.74504 2.48052L2.20496 3.02019C1.92817 3.29675 1.47962 3.29666 1.20295 3.01999L0.663234 2.48027C0.386544 2.20358 0.386478 1.75499 0.663087 1.47822L1.20281 0.93818C1.33569 0.805214 1.51596 0.730496 1.70395 0.730469ZM1.70395 6.66895C1.89193 6.66892 2.07223 6.74358 2.20515 6.87651L2.74524 7.4166C2.87814 7.5495 2.95281 7.72976 2.9528 7.91771C2.9528 8.10566 2.87813 8.28592 2.74522 8.41882L2.20513 8.95886C2.0722 9.09178 1.8919 9.16644 1.70392 9.1664C1.51593 9.16637 1.33566 9.09164 1.20278 8.95867L0.66306 8.41857C0.386534 8.14185 0.386546 7.6934 0.663087 7.4167L1.20281 6.87666C1.33569 6.74369 1.51596 6.66897 1.70395 6.66895Z" fill="black"/>
</svg>
