<svg width="8" height="14" viewBox="0 0 8 14" fill="none" xmlns="http://www.w3.org/2000/svg">
<path fill-rule="evenodd" clip-rule="evenodd" d="M6.72767 0.901367C7.11906 0.901367 7.43634 1.21865 7.43634 1.61003V5.91445C7.43655 5.92453 7.43655 5.93462 7.43634 5.94473V12.3932C7.43655 12.4033 7.43655 12.4134 7.43634 12.4234V12.9486C7.43634 13.34 7.11906 13.6573 6.72767 13.6573C6.53271 13.6573 6.35614 13.5785 6.22801 13.4511L5.96488 13.5828C5.86645 13.632 5.75791 13.6576 5.64785 13.6576L3.48821 13.6576C3.37818 13.6576 3.26966 13.6319 3.17125 13.5827L2.09144 13.0427C2.02335 13.0086 1.96119 12.9638 1.90736 12.91L1.36726 12.3699C1.31339 12.3161 1.26857 12.2539 1.2345 12.1858L0.694398 11.1057C0.645188 11.0073 0.619568 10.8988 0.619568 10.7887V7.54948C0.619568 7.43946 0.645187 7.33094 0.694397 7.23253L1.23449 6.15245C1.26856 6.08433 1.31339 6.02214 1.36725 5.96828L1.90735 5.42824C1.96119 5.37441 2.02335 5.3296 2.09144 5.29555L3.17126 4.75551C3.26967 4.70629 3.3782 4.68066 3.48824 4.68066H5.64786C5.75784 4.68066 5.86631 4.70626 5.96469 4.75543L6.01901 4.78259V1.61003C6.01901 1.21865 6.33629 0.901367 6.72767 0.901367ZM6.01901 6.36709L5.48062 6.09799H3.65557L2.82821 6.51176L2.45072 6.88921L2.03689 7.71679V10.6214L2.45073 11.449L2.82822 11.8265L3.65557 12.2402L5.48053 12.2403L6.01901 11.971V6.36709Z" fill="black"/>
</svg>
