<svg width="9" height="17" viewBox="0 0 9 17" fill="none" xmlns="http://www.w3.org/2000/svg">
<path fill-rule="evenodd" clip-rule="evenodd" d="M4.06625 0.791016C4.45763 0.791016 4.77491 1.10829 4.77491 1.49968V2.41113H5.68616C5.76229 2.41113 5.83793 2.4234 5.91016 2.44747L7.53006 2.98719C7.90138 3.1109 8.1021 3.5122 7.97838 3.88352C7.85467 4.25483 7.45337 4.45555 7.08205 4.33184L5.57121 3.82846H4.77491V8.23498L5.31797 8.37078C5.36813 8.38332 5.41678 8.40132 5.46303 8.42445L6.54286 8.96449C6.61096 8.99855 6.67312 9.04335 6.72695 9.09718L7.26705 9.63722C7.32092 9.69108 7.36575 9.75328 7.39982 9.82141L7.93989 10.9015C7.98909 10.9999 8.01471 11.1084 8.01471 11.2184L8.01474 12.2985C8.01474 12.4086 7.98908 12.5172 7.93979 12.6157L7.3997 13.6948C7.36564 13.7628 7.32085 13.8249 7.26704 13.8787L6.72692 14.4188C6.67309 14.4726 6.61093 14.5174 6.54285 14.5515L5.46305 15.0915C5.36463 15.1407 5.25611 15.1663 5.14607 15.1663L4.77491 15.1664V16.0777C4.77491 16.4691 4.45763 16.7864 4.06625 16.7864C3.67486 16.7864 3.35758 16.4691 3.35758 16.0777V15.1664L2.44635 15.1664C2.37014 15.1664 2.29443 15.1541 2.22214 15.13L0.602611 14.5899C0.23133 14.4661 0.030722 14.0647 0.15454 13.6935C0.278359 13.3222 0.679716 13.1216 1.051 13.2454L2.56138 13.7491L3.35758 13.7491V9.34152L2.81452 9.20572C2.76452 9.19322 2.71603 9.1753 2.66991 9.15228L1.59011 8.61321C1.52184 8.57913 1.45952 8.53425 1.40557 8.4803L0.865467 7.94026C0.811557 7.88635 0.766699 7.8241 0.73262 7.75591L0.192886 6.67583C0.143732 6.57747 0.118143 6.46901 0.118143 6.35905V5.27897C0.118143 5.16893 0.143771 5.06039 0.192997 4.96197L0.732715 3.88287C0.766685 3.81495 0.81135 3.75294 0.865003 3.69919L1.40511 3.15818C1.45917 3.10403 1.52165 3.05899 1.59011 3.02481L2.66993 2.48575C2.76823 2.43668 2.87659 2.41113 2.98645 2.41113H3.35758V1.49968C3.35758 1.10829 3.67486 0.791016 4.06625 0.791016ZM3.35758 3.82846H3.15351L2.32652 4.2413L1.94904 4.61941L1.53547 5.44631V6.19184L1.949 7.01939L2.32624 7.39658L3.23359 7.84955L3.35758 7.88056V3.82846ZM4.77491 9.69594V13.749L4.97872 13.749L5.80608 13.3352L6.18368 12.9577L6.59741 12.1311L6.59739 11.3857L6.18358 10.5582L5.8061 10.1807L4.89865 9.72689L4.77491 9.69594Z" fill="black"/>
</svg>
