<svg width="8" height="10" viewBox="0 0 8 10" fill="none" xmlns="http://www.w3.org/2000/svg">
<path fill-rule="evenodd" clip-rule="evenodd" d="M2.88993 0.75551C2.98835 0.706289 3.09688 0.680664 3.20692 0.680664H5.36653C5.47651 0.680664 5.58498 0.706263 5.68336 0.755433L6.76319 1.29515C6.9004 1.36373 7.01165 1.47499 7.08024 1.6122L7.62033 2.69271C7.6695 2.79109 7.6951 2.89957 7.6951 3.00955L7.69511 4.08925C7.69511 4.42705 7.45669 4.71789 7.12545 4.78415L2.29566 5.75027V7.16147L2.65531 7.88068L3.37425 8.24024L5.19921 8.24029L6.12934 7.77506C6.47938 7.59997 6.90507 7.74181 7.08015 8.09184C7.25524 8.44188 7.11341 8.86758 6.76337 9.04266L5.68356 9.58275C5.58513 9.63199 5.47658 9.65762 5.36652 9.65761L3.20689 9.65756C3.09685 9.65755 2.98833 9.63193 2.88992 9.58271L1.81012 9.04267C1.67301 8.9741 1.56183 8.86292 1.49327 8.72581L0.953171 7.64573C0.903961 7.54732 0.878341 7.43881 0.878341 7.32878V5.18246C0.878158 5.17318 0.878159 5.16392 0.878341 5.1547V3.00944C0.878341 2.89942 0.90396 2.7909 0.953169 2.69249L1.49326 1.61242C1.56183 1.4753 1.673 1.36412 1.81011 1.29555L2.88993 0.75551ZM2.29566 4.30487L6.27778 3.50831L6.27778 3.1768L5.91813 2.45728L5.19929 2.09799H3.37424L2.6553 2.45754L2.29566 3.17675V4.30487Z" fill="black"/>
</svg>
