<svg width="4" height="14" viewBox="0 0 4 14" fill="none" xmlns="http://www.w3.org/2000/svg">
<path fill-rule="evenodd" clip-rule="evenodd" d="M1.54971 0.618391C1.82644 0.341994 2.27478 0.342054 2.55143 0.618526L3.09152 1.15824C3.23903 1.30566 3.31412 1.51056 3.2968 1.71838L2.75672 8.19697C2.7261 8.56426 2.41905 8.84677 2.05048 8.84676C1.68191 8.84675 1.37488 8.56422 1.34429 8.19693L0.804573 1.71768C0.787257 1.50981 0.862405 1.30486 1.00999 1.15745L1.54971 0.618391ZM2.05038 10.6689C2.23837 10.6689 2.41866 10.7436 2.55159 10.8765L3.09168 11.4166C3.22459 11.5495 3.29925 11.7298 3.29925 11.9177C3.29924 12.1057 3.22457 12.2859 3.09166 12.4188L2.55157 12.9589C2.41864 13.0918 2.23834 13.1664 2.05035 13.1664C1.86236 13.1664 1.68209 13.0916 1.54921 12.9587L1.00951 12.4186C0.73299 12.1418 0.733002 11.6934 1.00953 11.4167L1.54924 10.8767C1.68212 10.7437 1.86239 10.669 2.05038 10.6689Z" fill="black"/>
</svg>
