<svg width="7" height="14" viewBox="0 0 7 14" fill="none" xmlns="http://www.w3.org/2000/svg">
<path fill-rule="evenodd" clip-rule="evenodd" d="M4.1487 0.976213C4.24712 0.926993 4.35565 0.901367 4.46569 0.901367H5.54553C5.93691 0.901367 6.25419 1.21865 6.25419 1.61003C6.25419 2.00141 5.93691 2.31869 5.54553 2.31869H4.63302L3.91408 2.67825L3.55444 3.39745V4.68066H5.5455C5.93688 4.68066 6.25416 4.99794 6.25416 5.38933C6.25416 5.78071 5.93688 6.09799 5.5455 6.09799H3.55444V12.9488C3.55444 13.3402 3.23716 13.6575 2.84578 13.6575C2.45439 13.6575 2.13712 13.3402 2.13712 12.9488V6.09799H1.22587C0.83449 6.09799 0.517212 5.78071 0.517212 5.38933C0.517212 4.99794 0.83449 4.68066 1.22587 4.68066H2.13712V3.23015C2.13712 3.12012 2.16273 3.01161 2.21194 2.9132L2.75204 1.83312C2.8206 1.69601 2.93178 1.58482 3.06889 1.51625L4.1487 0.976213Z" fill="black"/>
</svg>
