<svg width="7" height="14" viewBox="0 0 7 14" fill="none" xmlns="http://www.w3.org/2000/svg">
<path fill-rule="evenodd" clip-rule="evenodd" d="M2.62795 0.75551C2.72637 0.70629 2.8349 0.680664 2.94494 0.680664H5.10458C5.21456 0.680664 5.32304 0.706264 5.42142 0.755437L5.68454 0.886956C5.81268 0.75946 5.98933 0.680664 6.18437 0.680664C6.57575 0.680664 6.89303 0.997943 6.89303 1.38933V1.91446C6.89325 1.92453 6.89325 1.93462 6.89303 1.94473V8.39318C6.89325 8.40328 6.89325 8.41337 6.89303 8.42344V10.5683C6.89303 10.6783 6.86742 10.7868 6.81823 10.8852L6.27853 11.9647C6.24445 12.0329 6.1996 12.0951 6.14571 12.149L5.60561 12.689C5.55183 12.7428 5.48974 12.7875 5.42173 12.8216L4.34193 13.362C4.24346 13.4113 4.13485 13.4369 4.02474 13.4369L2.40483 13.4369C2.2948 13.4368 2.18629 13.4112 2.08788 13.362L1.00804 12.822C0.657997 12.6469 0.516144 12.2212 0.691208 11.8712C0.866271 11.5211 1.29196 11.3793 1.64201 11.5543L2.5722 12.0195L3.85734 12.0196L4.68472 11.6055L5.06225 11.228L5.47571 10.401V9.55568L5.42158 9.58275C5.32315 9.63199 5.2146 9.65762 5.10455 9.65761L2.94494 9.65756C2.83491 9.65755 2.72639 9.63193 2.62798 9.58271L1.54814 9.04267C1.48005 9.00862 1.41789 8.96382 1.36405 8.90998L0.823954 8.36995C0.77009 8.31609 0.725261 8.2539 0.691193 8.18577L0.151093 7.10569C0.101883 7.00728 0.0762634 6.89877 0.0762634 6.78874V3.54948C0.0762634 3.43946 0.101883 3.33094 0.151092 3.23253L0.691189 2.15245C0.725256 2.08433 0.770086 2.02213 0.82395 1.96828L1.36405 1.42824C1.41789 1.37441 1.48005 1.3296 1.54814 1.29555L2.62795 0.75551ZM5.47571 7.97095V2.36708L4.93734 2.09799H3.11226L2.28491 2.51177L1.90742 2.88921L1.49359 3.71679V6.62143L1.90742 7.44901L2.28491 7.82645L3.11229 8.24024L4.93723 8.24029L5.47571 7.97095Z" fill="black"/>
</svg>
