<svg width="8" height="14" viewBox="0 0 8 14" fill="none" xmlns="http://www.w3.org/2000/svg">
<path fill-rule="evenodd" clip-rule="evenodd" d="M1.58381 0.901367C1.9752 0.901367 2.29248 1.21865 2.29248 1.61003V5.05243L2.88697 4.75539C2.98533 4.70625 3.09377 4.68066 3.20372 4.68066H4.82326C4.9333 4.68066 5.04183 4.70629 5.14025 4.75552L6.22002 5.29555C6.35713 5.36413 6.4683 5.47531 6.53686 5.61241L7.07696 6.69249C7.12617 6.7909 7.15179 6.89942 7.15179 7.00944V12.9486C7.15179 13.34 6.83451 13.6573 6.44313 13.6573C6.05175 13.6573 5.73447 13.34 5.73447 12.9486V7.17675L5.37482 6.45754L4.65592 6.09799H3.3709L2.54344 6.51143L2.29248 6.76272V12.9486C2.29248 13.34 1.9752 13.6573 1.58381 13.6573C1.19243 13.6573 0.875153 13.34 0.875153 12.9486V1.61003C0.875153 1.21865 1.19243 0.901367 1.58381 0.901367Z" fill="black"/>
</svg>
