<svg width="12" height="17" viewBox="0 0 12 17" fill="none" xmlns="http://www.w3.org/2000/svg">
<path fill-rule="evenodd" clip-rule="evenodd" d="M5.88142 0.34808C6.26348 0.432977 6.50438 0.811525 6.41949 1.19359L5.53132 5.19058H7.85894L8.81542 0.886147C8.90032 0.504083 9.27887 0.263182 9.66093 0.34808C10.043 0.432977 10.2839 0.811525 10.199 1.19359L9.31083 5.19058H10.587C10.9784 5.19058 11.2957 5.50786 11.2957 5.89924C11.2957 6.29063 10.9784 6.6079 10.587 6.6079H8.99589L8.23104 10.05H9.5072C9.89859 10.05 10.2159 10.3672 10.2159 10.7586C10.2159 11.15 9.89859 11.4673 9.5072 11.4673H7.9161L6.95956 15.772C6.87466 16.154 6.49612 16.3949 6.11405 16.3101C5.73199 16.2252 5.49109 15.8466 5.57599 15.4645L6.46421 11.4673H4.13659L3.18005 15.772C3.09515 16.154 2.71661 16.3949 2.33454 16.3101C1.95248 16.2252 1.71158 15.8466 1.79648 15.4645L2.6847 11.4673H1.40843C1.01705 11.4673 0.699768 11.15 0.699768 10.7586C0.699768 10.3672 1.01705 10.05 1.40843 10.05H2.99964L3.76449 6.6079H2.48826C2.09688 6.6079 1.7796 6.29063 1.7796 5.89924C1.7796 5.50786 2.09688 5.19058 2.48826 5.19058H4.07943L5.03591 0.886147C5.12081 0.504083 5.49936 0.263182 5.88142 0.34808ZM5.21638 6.6079L4.45153 10.05H6.77915L7.544 6.6079H5.21638Z" fill="black"/>
</svg>
