<svg width="4" height="14" viewBox="0 0 4 14" fill="none" xmlns="http://www.w3.org/2000/svg">
<path fill-rule="evenodd" clip-rule="evenodd" d="M1.34165 1.10875C1.61848 0.832112 2.06716 0.832257 2.34382 1.10908L2.88353 1.64912C3.16008 1.92582 3.16009 2.37427 2.88356 2.65099L2.34384 3.19109C2.21093 3.32409 2.03062 3.39882 1.84259 3.39882C1.65456 3.39883 1.47424 3.32411 1.34132 3.19111L0.801225 2.6507C0.66836 2.51775 0.59375 2.33747 0.593811 2.14952C0.593872 1.96156 0.668598 1.78133 0.801549 1.64847L1.34165 1.10875ZM1.84257 4.68066C2.23396 4.68066 2.55123 4.99794 2.55123 5.38933V12.9484C2.55123 13.3398 2.23396 13.657 1.84257 13.657C1.45119 13.657 1.13391 13.3398 1.13391 12.9484V5.38933C1.13391 4.99794 1.45119 4.68066 1.84257 4.68066Z" fill="black"/>
</svg>
