<svg width="5" height="18" viewBox="0 0 5 18" fill="none" xmlns="http://www.w3.org/2000/svg">
<path fill-rule="evenodd" clip-rule="evenodd" d="M2.74053 1.10893C3.01727 0.832188 3.46596 0.832178 3.74271 1.10891L4.28279 1.64895C4.4157 1.78184 4.49037 1.9621 4.49038 2.15005C4.49038 2.338 4.41572 2.51826 4.28282 2.65116L3.74274 3.19126C3.60978 3.32422 3.42943 3.39888 3.2414 3.39882C3.05338 3.39876 2.87308 3.32398 2.74021 3.19094L2.20049 2.65052C1.92405 2.37372 1.9242 1.92527 2.20082 1.64865L2.74053 1.10893ZM3.24162 4.68066C3.633 4.68066 3.95028 4.99794 3.95028 5.38933V15.108C3.95028 15.218 3.92469 15.3264 3.87552 15.4248L3.33582 16.5047C3.26729 16.6418 3.15614 16.753 3.01906 16.8216L1.93925 17.362C1.84077 17.4113 1.73216 17.4369 1.62204 17.4369L1.08194 17.4369C0.690555 17.4368 0.373311 17.1195 0.373352 16.7281C0.373394 16.3367 0.690706 16.0195 1.08209 16.0195L1.45473 16.0196L2.17359 15.6598L2.53296 14.9408V5.38933C2.53296 4.99794 2.85024 4.68066 3.24162 4.68066Z" fill="black"/>
</svg>
