<svg width="7" height="14" viewBox="0 0 7 14" fill="none" xmlns="http://www.w3.org/2000/svg">
<path fill-rule="evenodd" clip-rule="evenodd" d="M1.64107 0.901367C2.03245 0.901367 2.34973 1.21865 2.34973 1.61003V7.99782L5.45961 4.8882C5.73637 4.61147 6.18507 4.61149 6.46181 4.88825C6.73855 5.16501 6.73853 5.61371 6.46177 5.89045L3.65671 8.69526L6.52761 12.523C6.76244 12.8361 6.69899 13.2803 6.38589 13.5151C6.07278 13.75 5.62859 13.6865 5.39376 13.3734L2.6443 9.70758L2.34973 10.0021V12.9486C2.34973 13.34 2.03245 13.6573 1.64107 13.6573C1.24968 13.6573 0.932404 13.34 0.932404 12.9486V1.61003C0.932404 1.21865 1.24968 0.901367 1.64107 0.901367Z" fill="black"/>
</svg>
