<svg width="12" height="10" viewBox="0 0 12 10" fill="none" xmlns="http://www.w3.org/2000/svg">
<path fill-rule="evenodd" clip-rule="evenodd" d="M0.0505066 2.46972V8.94838C0.0505066 9.33977 0.367785 9.65704 0.759168 9.65704C1.15055 9.65704 1.46783 9.33977 1.46783 8.94838V2.763L1.71907 2.51176L2.54641 2.09799H3.83174L4.55047 2.45723L4.90986 3.1767L4.90985 8.94859C4.90985 9.33997 5.22713 9.65725 5.61851 9.65725C6.00989 9.65726 6.32717 9.33998 6.32717 8.94859L6.32718 3.17684L6.68683 2.45753L7.40575 2.09799H8.69108L9.40981 2.45722L9.76918 3.1767L9.7692 8.9486C9.7692 9.33998 10.0865 9.65726 10.4779 9.65725C10.8692 9.65725 11.1865 9.33997 11.1865 8.94859L11.1865 3.00955C11.1865 2.89963 11.1609 2.79122 11.1118 2.69289L10.5721 1.61238C10.5035 1.47509 10.3922 1.36377 10.255 1.29515L9.17516 0.755436C9.07678 0.706263 8.96831 0.680664 8.85832 0.680664H7.23842C7.12838 0.680664 7.01986 0.70629 6.92144 0.75551L5.84162 1.29555C5.75585 1.33845 5.68023 1.39802 5.61883 1.47019C5.55736 1.39783 5.48158 1.33812 5.39562 1.29515L4.31581 0.755436C4.21744 0.706263 4.10896 0.680664 3.99898 0.680664H2.37908C2.26904 0.680664 2.16051 0.70629 2.06209 0.75551L1.4001 1.08659C1.28656 0.846643 1.04225 0.680664 0.759168 0.680664C0.367785 0.680664 0.0505066 0.997943 0.0505066 1.38933V2.46919C0.0505066 2.46937 0.0505066 2.46955 0.0505066 2.46972Z" fill="black"/>
</svg>
