<svg width="7" height="10" viewBox="0 0 7 10" fill="none" xmlns="http://www.w3.org/2000/svg">
<path fill-rule="evenodd" clip-rule="evenodd" d="M0.16861 2.46972V8.94838C0.16861 9.33977 0.485888 9.65704 0.877271 9.65704C1.26865 9.65704 1.58593 9.33977 1.58593 8.94838V2.76299L1.83717 2.51176L2.66452 2.09799H3.94987L4.66859 2.45723L5.02796 3.1767L5.02795 8.94859C5.02795 9.33997 5.34523 9.65725 5.73661 9.65725C6.128 9.65726 6.44528 9.33998 6.44528 8.94859L6.44529 3.00955C6.44529 2.89963 6.41972 2.79122 6.3706 2.69288L5.83089 1.61237C5.76231 1.47509 5.65102 1.36377 5.51375 1.29515L4.43395 0.755437C4.33557 0.706264 4.2271 0.680664 4.11711 0.680664H2.49719C2.38715 0.680664 2.27862 0.706289 2.18021 0.755509L1.5182 1.08659C1.40466 0.846642 1.16035 0.680664 0.877271 0.680664C0.485888 0.680664 0.16861 0.997943 0.16861 1.38933V2.46919C0.16861 2.46937 0.16861 2.46955 0.16861 2.46972Z" fill="black"/>
</svg>
