<svg width="9" height="10" viewBox="0 0 9 10" fill="none" xmlns="http://www.w3.org/2000/svg">
<path fill-rule="evenodd" clip-rule="evenodd" d="M3.43898 0.755512C3.53739 0.70629 3.64592 0.680664 3.75596 0.680664H5.3755C5.48544 0.680664 5.59388 0.706247 5.69224 0.75539L6.77244 1.29511C6.84077 1.32925 6.90313 1.37422 6.95711 1.42827L7.49684 1.96868C7.55053 2.02244 7.59522 2.08449 7.62921 2.15244L8.16929 3.2322C8.21852 3.33062 8.24416 3.43917 8.24416 3.54922L8.24414 6.7893C8.24413 6.89939 8.21848 7.00797 8.16922 7.10642L7.62915 8.18568C7.59512 8.25367 7.55038 8.31574 7.49664 8.36952L6.95693 8.9095C6.90308 8.96338 6.8409 9.00822 6.77277 9.04231L5.69257 9.58272C5.59413 9.63197 5.48557 9.65761 5.3755 9.65761H3.75596C3.64591 9.65761 3.53737 9.63198 3.43895 9.58275L2.35915 9.04266C2.29107 9.0086 2.22892 8.96381 2.17509 8.90998L1.63499 8.36995C1.58112 8.31609 1.5363 8.2539 1.50223 8.18577L0.962128 7.10569C0.912918 7.00728 0.887299 6.89877 0.887299 6.78874V3.54948C0.887299 3.43946 0.912917 3.33094 0.962126 3.23254L1.50221 2.15246C1.53628 2.08432 1.58112 2.02213 1.63498 1.96827L2.1751 1.42823C2.22893 1.3744 2.29109 1.3296 2.35918 1.29555L3.43898 0.755512ZM3.92329 2.09799L3.09595 2.51177L2.71844 2.88922L2.30462 3.71679V6.62143L2.71846 7.44901L3.09596 7.82647L3.92331 8.24029H5.20812L6.03577 7.82622L6.41303 7.44877L6.82681 6.62188L6.82683 3.71656L6.41293 2.88907L6.03578 2.51143L5.20831 2.09799H3.92329Z" fill="black"/>
</svg>
