<svg width="6" height="20" viewBox="0 0 6 20" fill="none" xmlns="http://www.w3.org/2000/svg">
<path fill-rule="evenodd" clip-rule="evenodd" d="M5.02088 0.998601C5.29761 1.27536 5.29759 1.72406 5.02083 2.0008L4.53033 2.49125L3.51393 4.01531L3.01613 5.01077L2.50627 6.54126L1.98858 9.12847V11.1482L2.50627 13.7354L3.01615 15.2659L3.51398 16.2615L4.53034 17.7864L5.02068 18.2764C5.29752 18.553 5.29768 19.0017 5.02103 19.2786C4.74438 19.5554 4.29568 19.5556 4.01883 19.2789L3.47874 18.7392C3.44565 18.7062 3.41591 18.6699 3.38997 18.631L2.31017 17.0109C2.29389 16.9864 2.27915 16.961 2.26602 16.9348L1.72592 15.8547C1.7109 15.8247 1.69804 15.7936 1.68742 15.7617L1.14769 14.1416C1.13842 14.1138 1.13089 14.0854 1.12513 14.0567L0.585033 11.3575C0.575872 11.3117 0.571259 11.2651 0.571259 11.2184V9.05827C0.571259 9.01158 0.575872 8.96501 0.585033 8.91923L1.12513 6.22001C1.13088 6.19126 1.13841 6.16289 1.14768 6.13507L1.6874 4.51496C1.69802 4.48309 1.71088 4.45202 1.72591 4.42198L2.26602 3.3419C2.27918 3.31559 2.29396 3.29013 2.31027 3.26566L3.39009 1.64652C3.41596 1.60772 3.44561 1.57157 3.47859 1.53859L4.01868 0.998555C4.29544 0.721818 4.74414 0.721839 5.02088 0.998601Z" fill="black"/>
</svg>
