<svg width="6" height="20" viewBox="0 0 6 20" fill="none" xmlns="http://www.w3.org/2000/svg">
<path fill-rule="evenodd" clip-rule="evenodd" d="M4.0936 0.86586C4.19202 0.816641 4.30054 0.791016 4.41058 0.791016H4.95031C5.34169 0.791016 5.65897 1.10829 5.65897 1.49968C5.65897 1.89106 5.34169 2.20834 4.95031 2.20834H4.57791L3.85896 2.5679L3.49932 3.2871L3.49933 8.51823C3.49933 8.62819 3.47375 8.73663 3.4246 8.83499L2.88491 9.91507C2.84194 10.0011 2.78221 10.0769 2.70984 10.1384C2.7822 10.1999 2.84192 10.2756 2.88488 10.3616L3.42459 11.4417C3.47374 11.5401 3.49932 11.6485 3.49932 11.7585V16.9906L3.85884 17.7095L4.57765 18.0684H4.95031C5.34169 18.0684 5.65897 18.3856 5.65897 18.777C5.65897 19.1684 5.34169 19.4857 4.95031 19.4857H4.4106C4.30073 19.4857 4.19237 19.4601 4.09407 19.4111L3.01424 18.872C2.87692 18.8035 2.76557 18.6922 2.69693 18.5549L2.15683 17.4748C2.10762 17.3764 2.082 17.2679 2.082 17.1579V11.9257L1.72267 11.2066L0.853888 10.7722C0.613792 10.6522 0.462127 10.4068 0.462128 10.1383C0.462129 9.86992 0.613796 9.62453 0.853893 9.50449L1.72269 9.07014L2.08201 8.35104L2.082 3.1198C2.082 3.00977 2.10762 2.90126 2.15683 2.80285L2.69692 1.72277C2.76548 1.58565 2.87666 1.47447 3.01377 1.4059L4.0936 0.86586Z" fill="black"/>
</svg>
