<svg width="8" height="14" viewBox="0 0 8 14" fill="none" xmlns="http://www.w3.org/2000/svg">
<path fill-rule="evenodd" clip-rule="evenodd" d="M0.68616 1.91478C0.685953 1.92464 0.685953 1.93451 0.68616 1.9444V8.39351C0.685953 8.40339 0.685953 8.41326 0.68616 8.42311V12.7279C0.68616 13.1193 1.00344 13.4366 1.39482 13.4366C1.7862 13.4366 2.10348 13.1193 2.10348 12.7279V9.55564L2.1576 9.58271C2.25601 9.63193 2.36454 9.65755 2.47458 9.65756L4.63421 9.65761C4.74433 9.65762 4.85293 9.63196 4.9514 9.58268L6.0312 9.04226C6.09921 9.00822 6.1613 8.96346 6.21508 8.90969L6.75518 8.3697C6.80901 8.31589 6.85381 8.25376 6.88787 8.18569L7.42797 7.10644C7.47724 7.00798 7.5029 6.89939 7.5029 6.78929L7.5029 3.54921C7.5029 3.43916 7.47727 3.33061 7.42803 3.23218L6.88791 2.15242C6.85389 2.08441 6.80914 2.02231 6.75538 1.96852L6.21531 1.4281C6.16139 1.37415 6.09911 1.32925 6.03088 1.29515L4.95104 0.755433C4.85267 0.706262 4.7442 0.680664 4.63422 0.680664H2.47462C2.36464 0.680664 2.25617 0.706264 2.15779 0.755436L1.89465 0.88696C1.76651 0.759462 1.58987 0.680664 1.39482 0.680664C1.00344 0.680664 0.68616 0.997943 0.68616 1.38933V1.91478ZM2.10348 7.97094V2.36709L2.64187 2.09799H4.46698L5.2942 2.51145L5.6717 2.88918L6.08558 3.71657L6.08557 6.62187L5.67183 7.44864L5.29419 7.8262L4.46681 8.24029L2.64194 8.24024L2.10348 7.97094Z" fill="black"/>
</svg>
