<svg width="11" height="14" viewBox="0 0 11 14" fill="none" xmlns="http://www.w3.org/2000/svg">
<path fill-rule="evenodd" clip-rule="evenodd" d="M10.6936 0.556139C11.005 0.793333 11.065 1.23799 10.8279 1.54931L2.18899 12.8879C1.95179 13.1992 1.50714 13.2593 1.19582 13.0221C0.884498 12.7849 0.824407 12.3403 1.0616 12.0289L9.70047 0.690354C9.93766 0.379035 10.3823 0.318945 10.6936 0.556139ZM2.92867 0.485788C3.12807 0.386244 3.36268 0.386301 3.56203 0.485941L4.64185 1.02566C4.77894 1.09418 4.89013 1.20531 4.95873 1.34237L5.49885 2.42153C5.59873 2.6211 5.59877 2.85605 5.49896 3.05565L4.95886 4.13573C4.89033 4.27279 4.77921 4.38395 4.64216 4.45252L3.56233 4.99289C3.36275 5.09276 3.12778 5.09278 2.92818 4.99295L1.84838 4.45285C1.71129 4.38428 1.60012 4.2731 1.53156 4.136L0.991463 3.05592C0.89169 2.8564 0.89169 2.62155 0.991461 2.42202L1.53155 1.34195C1.6002 1.20468 1.71155 1.0934 1.84886 1.02485L2.92867 0.485788ZM2.69347 2.18733L2.41762 2.73897L2.69361 3.29089L3.24512 3.56675L3.79678 3.29069L4.07273 2.73885L3.79697 2.18787L3.24501 1.91199L2.69347 2.18733ZM8.32772 8.58462C8.52725 8.48485 8.76211 8.48487 8.96163 8.58465L10.0414 9.12469C10.1786 9.19329 10.2898 9.30454 10.3584 9.44173L10.8981 10.5218C10.9977 10.7213 10.9977 10.956 10.8981 11.1554L10.3583 12.2352C10.2897 12.3725 10.1784 12.4838 10.0411 12.5524L8.96132 13.0917C8.76197 13.1913 8.5274 13.1913 8.32804 13.0918L7.24786 12.5524C7.11051 12.4838 6.99915 12.3725 6.93053 12.2352L6.39082 11.1551C6.29115 10.9556 6.29117 10.7209 6.39085 10.5215L6.93056 9.44172C6.99913 9.30454 7.11035 9.1933 7.24752 9.12471L8.32772 8.58462ZM8.09269 10.2867L7.81697 10.8384L8.09265 11.39L8.64458 11.6657L9.19626 11.3901L9.47193 10.8385L9.19614 10.2866L8.6446 10.0108L8.09269 10.2867Z" fill="black"/>
</svg>
