<svg width="11" height="11" viewBox="0 0 11 11" fill="none" xmlns="http://www.w3.org/2000/svg">
<path fill-rule="evenodd" clip-rule="evenodd" d="M5.43312 0.110352C5.8245 0.110352 6.14178 0.42763 6.14178 0.819013V4.42969H9.75237C10.1437 4.42969 10.461 4.74697 10.461 5.13835C10.461 5.52973 10.1437 5.84701 9.75237 5.84701H6.14178V9.45826C6.14178 9.84964 5.8245 10.1669 5.43312 10.1669C5.04174 10.1669 4.72446 9.84964 4.72446 9.45826V5.84701H1.11351C0.722125 5.84701 0.404846 5.52973 0.404846 5.13835C0.404846 4.74697 0.722125 4.42969 1.11351 4.42969H4.72446V0.819013C4.72446 0.42763 5.04174 0.110352 5.43312 0.110352Z" fill="black"/>
</svg>
