<svg width="8" height="14" viewBox="0 0 8 14" fill="none" xmlns="http://www.w3.org/2000/svg">
<path fill-rule="evenodd" clip-rule="evenodd" d="M2.95614 0.755511C3.05456 0.70629 3.16309 0.680664 3.27313 0.680664H5.43314C5.54313 0.680664 5.6516 0.706264 5.74998 0.755437L6.01312 0.886963C6.14126 0.759463 6.3179 0.680664 6.51295 0.680664C6.90434 0.680664 7.22161 0.997943 7.22161 1.38933V1.91559C7.2218 1.92491 7.2218 1.93425 7.22161 1.94359V8.39431C7.2218 8.40365 7.2218 8.41299 7.22161 8.4223V12.7279C7.22161 13.1193 6.90434 13.4366 6.51295 13.4366C6.12157 13.4366 5.80429 13.1193 5.80429 12.7279V9.55567L5.75013 9.58276C5.6517 9.63199 5.54316 9.65762 5.4331 9.65761L3.27313 9.65756C3.16309 9.65755 3.05458 9.63193 2.95616 9.58271L1.87633 9.04267C1.80816 9.00858 1.74594 8.96371 1.69206 8.9098L1.15235 8.36976C1.09857 8.31595 1.0538 8.25382 1.01978 8.18577L0.479676 7.10569C0.430466 7.00728 0.404846 6.89877 0.404846 6.78874V3.54948C0.404846 3.43946 0.430465 3.33094 0.479673 3.23254L1.01976 2.15246C1.05379 2.0844 1.09856 2.02227 1.15235 1.96845L1.69208 1.42841C1.74595 1.3745 1.80817 1.32964 1.87634 1.29555L2.95614 0.755511ZM5.80429 7.97094V2.36709L5.2659 2.09799H3.44046L2.61322 2.51171L2.23605 2.8891L1.82217 3.71679V6.62143L2.23606 7.44912L2.61322 7.82651L3.44048 8.24024L5.26578 8.24029L5.80429 7.97094Z" fill="black"/>
</svg>
