<svg width="8" height="14" viewBox="0 0 8 14" fill="none" xmlns="http://www.w3.org/2000/svg">
<path fill-rule="evenodd" clip-rule="evenodd" d="M2.11844 0.485905C2.21681 0.436732 2.32529 0.411133 2.43527 0.411133H5.135C5.24498 0.411133 5.35346 0.436733 5.45184 0.485907L6.53162 1.02562C6.66872 1.09415 6.77991 1.20528 6.84851 1.34235L7.3886 2.4215C7.43788 2.51997 7.46353 2.62856 7.46353 2.73866L7.46354 3.81874C7.46355 3.92873 7.43794 4.03722 7.38876 4.13561L6.84866 5.21606C6.81455 5.28431 6.76964 5.34659 6.71567 5.40052L6.1756 5.94012C6.12185 5.99382 6.05982 6.03853 5.99188 6.07253L5.01477 6.56155L4.63748 6.93879L4.22374 7.76548V8.1384C4.22374 8.52978 3.90646 8.84706 3.51508 8.84706C3.12369 8.84706 2.80641 8.52978 2.80641 8.1384V7.59804C2.80641 7.48793 2.83207 7.37934 2.88135 7.28087L3.42145 6.20172C3.45551 6.13368 3.5003 6.07156 3.55411 6.01776L4.09384 5.4781C4.14763 5.42431 4.20972 5.37954 4.27774 5.3455L5.25497 4.85642L5.63241 4.4793L6.04622 3.65149L6.04621 2.9061L5.68673 2.18783L4.96775 1.82846H2.60251L1.67231 2.2934C1.32222 2.46839 0.896564 2.32644 0.72158 1.97635C0.546596 1.62626 0.688545 1.20061 1.03863 1.02562L2.11844 0.485905ZM3.51497 10.6689C3.70295 10.6689 3.88324 10.7436 4.01616 10.8765L4.55628 11.4166C4.68919 11.5495 4.76386 11.7297 4.76385 11.9177C4.76385 12.1057 4.68918 12.2859 4.55626 12.4188L4.01614 12.9589C3.88321 13.0918 3.70292 13.1664 3.51493 13.1664C3.32695 13.1664 3.14669 13.0916 3.01381 12.9587L2.47407 12.4186C2.19754 12.1419 2.19755 11.6934 2.4741 11.4167L3.01383 10.8766C3.14672 10.7437 3.32699 10.669 3.51497 10.6689Z" fill="black"/>
</svg>
