<svg width="5" height="10" viewBox="0 0 5 10" fill="none" xmlns="http://www.w3.org/2000/svg">
<path fill-rule="evenodd" clip-rule="evenodd" d="M0.203677 3.56347V8.94838C0.203677 9.33977 0.520956 9.65704 0.912338 9.65704C1.30372 9.65704 1.621 9.33977 1.621 8.94838V3.71645L2.03449 2.88917L2.41195 2.51177L3.23932 2.09799H4.15178C4.54316 2.09799 4.86044 1.78071 4.86044 1.38933C4.86044 0.997943 4.54316 0.680664 4.15178 0.680664H3.07199C2.96195 0.680664 2.85343 0.706289 2.75501 0.755509L1.67518 1.29555C1.65573 1.30528 1.63676 1.31588 1.61833 1.32733C1.58692 0.964978 1.28283 0.680664 0.912338 0.680664C0.520956 0.680664 0.203677 0.997943 0.203677 1.38933V3.53386C0.20347 3.54374 0.20347 3.55362 0.203677 3.56347Z" fill="black"/>
</svg>
