<svg width="7" height="10" viewBox="0 0 7 10" fill="none" xmlns="http://www.w3.org/2000/svg">
<path fill-rule="evenodd" clip-rule="evenodd" d="M2.69416 0.755509C2.79257 0.706289 2.9011 0.680664 3.01114 0.680664H4.63103C4.74101 0.680664 4.84949 0.706264 4.94787 0.755437L6.02767 1.29515C6.37776 1.47014 6.5197 1.89579 6.34472 2.24588C6.16973 2.59597 5.74408 2.73792 5.39399 2.56293L4.46379 2.09799H3.17846L2.45952 2.45754L2.09988 3.17675V3.38204L2.4594 4.10034L3.17845 4.45996H4.63103C4.74107 4.45996 4.8496 4.48559 4.94801 4.53481L6.02782 5.07485C6.16492 5.14342 6.2761 5.2546 6.34466 5.39171L6.88476 6.47179C6.93397 6.5702 6.95959 6.67871 6.95959 6.78874L6.9596 7.32877C6.9596 7.4388 6.93398 7.54732 6.88477 7.64573L6.34466 8.72581C6.2761 8.86292 6.16493 8.9741 6.02782 9.04267L4.94803 9.58271C4.84962 9.63193 4.7411 9.65755 4.63106 9.65756L2.47143 9.65761C2.36141 9.65762 2.2529 9.632 2.15449 9.5828L1.0743 9.0427C0.724234 8.86767 0.582342 8.442 0.757374 8.09193C0.932406 7.74187 1.35808 7.59998 1.70814 7.77501L2.6387 8.24029L4.4637 8.24024L5.18262 7.88068L5.54227 7.16147L5.54227 6.95605L5.18262 6.23684L4.4637 5.87728H3.01112C2.90108 5.87728 2.79255 5.85166 2.69414 5.80244L1.61433 5.2624C1.4773 5.19387 1.36618 5.08277 1.2976 4.94576L0.757503 3.86666C0.708219 3.76819 0.682559 3.6596 0.682559 3.54948V3.00944C0.682559 2.89942 0.708178 2.7909 0.757386 2.6925L1.29747 1.61242C1.36604 1.4753 1.47722 1.36412 1.61433 1.29555L2.69416 0.755509Z" fill="black"/>
</svg>
