<svg width="3" height="11" viewBox="0 0 3 11" fill="none" xmlns="http://www.w3.org/2000/svg">
<path fill-rule="evenodd" clip-rule="evenodd" d="M1.30452 0.730469C1.49251 0.730442 1.6728 0.805107 1.80573 0.938034L2.34582 1.47813C2.47875 1.61106 2.55341 1.79137 2.55337 1.97937C2.55334 2.16736 2.4786 2.34764 2.34562 2.48052L1.80553 3.02019C1.52874 3.29675 1.0802 3.29666 0.803523 3.01999L0.263805 2.48027C-0.0128855 2.20358 -0.0129514 1.75499 0.263657 1.47822L0.803376 0.93818C0.936263 0.805214 1.11654 0.730496 1.30452 0.730469ZM1.84471 7.20898C2.23609 7.20898 2.55337 7.52626 2.55337 7.91765V8.45774C2.55337 8.5678 2.52774 8.67634 2.47851 8.77476L1.93842 9.85452C1.90439 9.92255 1.85963 9.98466 1.80585 10.0385L1.26613 10.5785C0.98945 10.8553 0.540751 10.8554 0.263932 10.5787C-0.0128872 10.302 -0.0129997 9.85333 0.26368 9.57651L0.722206 9.11775L1.13605 8.29039V7.91765C1.13605 7.52626 1.45333 7.20898 1.84471 7.20898Z" fill="black"/>
</svg>
