<svg width="8" height="7" viewBox="0 0 8 7" fill="none" xmlns="http://www.w3.org/2000/svg">
<path fill-rule="evenodd" clip-rule="evenodd" d="M4.26094 0.411133C4.65233 0.411133 4.9696 0.728411 4.9696 1.11979V2.7723L6.6974 2.08099C7.06078 1.93559 7.47322 2.1123 7.61861 2.47568C7.764 2.83905 7.58729 3.25149 7.22392 3.39688L5.38263 4.13361L6.44778 5.55382C6.68261 5.86692 6.61915 6.31111 6.30605 6.54594C5.99294 6.78077 5.54875 6.71732 5.31392 6.40421L4.26094 5.00024L3.20797 6.40421C2.97314 6.71732 2.52895 6.78077 2.21584 6.54594C1.90274 6.31111 1.83928 5.86692 2.07411 5.55382L3.13926 4.13361L1.29798 3.39688C0.934605 3.25149 0.757895 2.83905 0.903287 2.47568C1.04868 2.1123 1.46112 1.93559 1.82449 2.08099L3.55228 2.7723V1.11979C3.55228 0.728411 3.86956 0.411133 4.26094 0.411133Z" fill="black"/>
</svg>
