<svg width="7" height="14" viewBox="0 0 7 14" fill="none" xmlns="http://www.w3.org/2000/svg">
<path fill-rule="evenodd" clip-rule="evenodd" d="M3.1103 0.901367C3.50169 0.901367 3.81896 1.21865 3.81896 1.61003V4.68066H5.81C6.20138 4.68066 6.51866 4.99794 6.51866 5.38933C6.51866 5.78071 6.20138 6.09799 5.81 6.09799H3.81896V11.1615L4.17834 11.8805L4.89723 12.2403L5.80997 12.2402C6.20135 12.2402 6.51864 12.5575 6.51866 12.9489C6.51868 13.3402 6.20142 13.6575 5.81004 13.6576L4.72986 13.6576C4.61975 13.6576 4.51115 13.632 4.41268 13.5827L3.33288 13.0423C3.19579 12.9737 3.08465 12.8625 3.01612 12.7254L2.4764 11.6455C2.42724 11.5471 2.40164 11.4387 2.40164 11.3287V6.09799H1.49037C1.09899 6.09799 0.781708 5.78071 0.781708 5.38933C0.781708 4.99794 1.09899 4.68066 1.49037 4.68066H2.40164V1.61003C2.40164 1.21865 2.71892 0.901367 3.1103 0.901367Z" fill="black"/>
</svg>
