<svg width="8" height="3" viewBox="0 0 8 3" fill="none" xmlns="http://www.w3.org/2000/svg">
<path fill-rule="evenodd" clip-rule="evenodd" d="M2.63486 0.42441C2.83436 0.32467 3.06918 0.324676 3.26868 0.424426L5.1114 1.34579L5.77144 1.01586L6.23019 0.55715C6.50695 0.280412 6.95565 0.280432 7.23239 0.557193C7.50913 0.833955 7.50911 1.28265 7.23235 1.55939L6.69226 2.09943C6.63839 2.1533 6.57618 2.19813 6.50804 2.23219L5.42821 2.77196C5.22872 2.87168 4.99391 2.87167 4.79443 2.77193L2.95173 1.85057L2.29143 2.18068L1.8331 2.63933C1.55645 2.91617 1.10775 2.91633 0.830904 2.63967C0.554059 2.36302 0.553904 1.91432 0.830558 1.63747L1.37027 1.09738C1.42418 1.04344 1.48644 0.998551 1.55465 0.964449L2.63486 0.42441Z" fill="black"/>
</svg>
