<svg width="8" height="10" viewBox="0 0 8 10" fill="none" xmlns="http://www.w3.org/2000/svg">
<path fill-rule="evenodd" clip-rule="evenodd" d="M1.58954 0.680664C1.98092 0.680664 2.2982 0.997943 2.2982 1.38933V7.16128L2.6576 7.88055L3.37647 8.24029L4.66162 8.24024L5.48899 7.82646L5.7402 7.57527V1.38933C5.7402 0.997943 6.05748 0.680664 6.44887 0.680664C6.84025 0.680664 7.15753 0.997943 7.15753 1.38933V7.86639C7.15753 7.86801 7.15753 7.86963 7.15753 7.87125V8.94838C7.15753 9.33977 6.84025 9.65704 6.44887 9.65704C6.16595 9.65704 5.92176 9.49126 5.80814 9.25154L5.14595 9.58271C5.04754 9.63193 4.93902 9.65755 4.82899 9.65756L3.20908 9.65761C3.09898 9.65762 2.99038 9.63197 2.89192 9.58269L1.81211 9.04233C1.67501 8.97372 1.56385 8.86249 1.49532 8.72535L0.95561 7.64524C0.906461 7.54688 0.880875 7.43843 0.880875 7.32848V1.38933C0.880875 0.997943 1.19815 0.680664 1.58954 0.680664Z" fill="black"/>
</svg>
