<svg width="11" height="10" viewBox="0 0 11 10" fill="none" xmlns="http://www.w3.org/2000/svg">
<path fill-rule="evenodd" clip-rule="evenodd" d="M1.21227 0.708119C1.58859 0.600586 1.98083 0.818481 2.08837 1.1948L3.67885 6.7608L5.06862 3.28647C5.17624 3.01742 5.43682 2.841 5.7266 2.841C6.01638 2.84101 6.27696 3.01744 6.38457 3.28649L7.77435 6.76117L9.36483 1.19481C9.47236 0.818491 9.8646 0.600589 10.2409 0.708116C10.6172 0.815643 10.8351 1.20788 10.7276 1.5842L8.5676 9.14379C8.48435 9.43517 8.22504 9.64136 7.9224 9.65684C7.61976 9.67231 7.34077 9.49364 7.22823 9.21227L5.72656 5.45783L4.22495 9.21176C4.1124 9.49312 3.83342 9.67178 3.53078 9.6563C3.22815 9.64083 2.96884 9.43464 2.88559 9.14327L0.725591 1.58421C0.618057 1.20789 0.835952 0.815653 1.21227 0.708119Z" fill="black"/>
</svg>
