<svg width="8" height="10" viewBox="0 0 8 10" fill="none" xmlns="http://www.w3.org/2000/svg">
<path fill-rule="evenodd" clip-rule="evenodd" d="M0.847836 0.832118C1.15559 0.590316 1.60109 0.643781 1.84289 0.951534L4.25523 4.02184L6.66757 0.951534C6.90937 0.643781 7.35487 0.590316 7.66263 0.832118C7.97038 1.07392 8.02384 1.51942 7.78204 1.82718L5.15647 5.16888L7.78204 8.51059C8.02384 8.81835 7.97038 9.26385 7.66263 9.50565C7.35487 9.74745 6.90937 9.69399 6.66757 9.38623L4.25523 6.31593L1.84289 9.38623C1.60109 9.69399 1.15559 9.74745 0.847836 9.50565C0.540082 9.26385 0.486617 8.81835 0.72842 8.51059L3.354 5.16888L0.72842 1.82718C0.486617 1.51942 0.540082 1.07392 0.847836 0.832118Z" fill="black"/>
</svg>
