<svg width="8" height="14" viewBox="0 0 8 14" fill="none" xmlns="http://www.w3.org/2000/svg">
<path fill-rule="evenodd" clip-rule="evenodd" d="M1.22627 0.722144C1.59485 0.590505 2.00036 0.782584 2.132 1.15117L4.1643 6.84148L6.19629 1.1512C6.32792 0.782609 6.73342 0.590511 7.102 0.722133C7.47059 0.853755 7.66269 1.25925 7.53107 1.62784L4.83173 9.1869C4.82875 9.19525 4.82561 9.20355 4.82231 9.21179L3.74213 11.912C3.70644 12.0012 3.65299 12.0822 3.58503 12.1501L3.04531 12.6894C2.99157 12.743 2.92954 12.7878 2.8616 12.8218L1.78178 13.3622C1.43179 13.5373 1.00606 13.3956 0.830896 13.0456C0.655732 12.6956 0.797463 12.2699 1.14746 12.0947L2.12471 11.6056L2.48028 11.2504L3.40677 8.93437L0.797248 1.62787C0.665609 1.25929 0.857688 0.853783 1.22627 0.722144Z" fill="black"/>
</svg>
