<svg width="8" height="10" viewBox="0 0 8 10" fill="none" xmlns="http://www.w3.org/2000/svg">
<path fill-rule="evenodd" clip-rule="evenodd" d="M0.394827 1.38933C0.394827 0.997943 0.712106 0.680664 1.10349 0.680664H7.04264C7.31393 0.680664 7.56141 0.835544 7.68 1.07954C7.79859 1.32354 7.76748 1.61382 7.59987 1.82715L2.56142 8.23985L7.0427 8.24023C7.43408 8.24027 7.75133 8.55757 7.7513 8.94896C7.75126 9.34034 7.43396 9.65759 7.04258 9.65756L1.10343 9.65704C0.832148 9.65702 0.584687 9.50213 0.46611 9.25814C0.347533 9.01415 0.378651 8.72388 0.546251 8.51056L5.58461 2.09799H1.10349C0.712106 2.09799 0.394827 1.78071 0.394827 1.38933Z" fill="black"/>
</svg>
